<svg width="24" height="24" viewBox="0 0 24 24" fill="none" xmlns="http://www.w3.org/2000/svg">
<g clip-path="url(#clip0_2070_11475)">
<path d="M0 12C0 5.37258 5.37258 0 12 0C18.6274 0 24 5.37258 24 12C24 18.6274 18.6274 24 12 24C5.37258 24 0 18.6274 0 12Z" fill="url(#paint0_linear_2070_11475)"/>
<path d="M12 22C17.5 22 22 17.5 22 12C22 6.5 17.5 2 12 2C6.5 2 2 6.5 2 12C2 17.5 6.5 22 12 22Z" stroke="#F0EFFB" stroke-width="1.5" stroke-linecap="round" stroke-linejoin="round"/>
<path d="M12 8V13" stroke="#F0EFFB" stroke-width="1.5" stroke-linecap="round" stroke-linejoin="round"/>
<path d="M11.9941 16H12.0031" stroke="#F0EFFB" stroke-width="2" stroke-linecap="round" stroke-linejoin="round"/>
</g>
<defs>
<linearGradient id="paint0_linear_2070_11475" x1="0" y1="0" x2="24.5983" y2="0.629716" gradientUnits="userSpaceOnUse">
<stop stop-color="#B3ACFC"/>
<stop offset="1" stop-color="#584CF4"/>
</linearGradient>
<clipPath id="clip0_2070_11475">
<path d="M0 12C0 5.37258 5.37258 0 12 0C18.6274 0 24 5.37258 24 12C24 18.6274 18.6274 24 12 24C5.37258 24 0 18.6274 0 12Z" fill="white"/>
</clipPath>
</defs>
</svg>
