<svg width="148" height="148" viewBox="0 0 148 148" fill="none" xmlns="http://www.w3.org/2000/svg">
<path d="M92.6 21.92H83.3V15.968C83.3 13.7764 81.5236 12 79.332 12H68.668C66.4764 12 64.7 13.7764 64.7 15.968V21.92H55.4C48.5517 21.92 43 27.4717 43 34.32V123.6C43 130.448 48.5517 136 55.4 136H92.6C99.4483 136 105 130.448 105 123.6V34.32C105 27.4717 99.4483 21.92 92.6 21.92ZM102.52 123.6C102.52 129.07 98.0699 133.52 92.6 133.52H55.4C49.9301 133.52 45.48 129.07 45.48 123.6V34.32C45.48 28.8501 49.9301 24.4 55.4 24.4H92.6C98.0699 24.4 102.52 28.8501 102.52 34.32V123.6Z" fill="white"/>
<path d="M100.04 89.376V123.6C100.04 127.702 96.7024 131.04 92.6 131.04H55.4C51.2975 131.04 47.96 127.702 47.96 123.6V34.32C47.96 30.2176 51.2975 26.88 55.4 26.88H92.6C96.7024 26.88 100.04 30.2176 100.04 34.32V68.544V89.376Z" fill="#039855"/>
<path d="M92.6254 74.4556L69.2739 116.869L78.6563 83.4647H55.3748L78.7262 41.051L69.3439 74.4556H92.6254Z" fill="white"/>
</svg>
