<svg width="148" height="148" viewBox="0 0 148 148" fill="none" xmlns="http://www.w3.org/2000/svg">
<path d="M112.358 123.323C104.076 128.237 94.0956 130.582 83.3102 129.447C81.8584 129.296 80.4582 129.09 79.0024 128.836C70.4225 127.254 62.275 123.592 55.0556 118.444C50.3714 115.126 46.1414 111.209 42.4733 106.794C35.8172 98.9395 30.728 89.5464 28.0624 79.3719C26.7648 74.6071 26.0168 69.7094 25.8331 64.7745C25.6189 59.2053 26.083 53.8662 27.2373 48.8681C30.4265 35.1117 38.467 23.9574 49.4745 17.4402L35.6943 25.6631C24.6828 32.1803 16.6423 43.3346 13.5047 57.0871C12.3028 62.093 11.8387 67.4282 12.0489 72.9974C12.0846 73.9256 12.1679 74.8538 12.2592 75.7781C12.5686 79.7963 13.2905 83.7432 14.2623 87.5789C17.003 97.6712 21.9281 107.038 28.6891 115.016C32.3401 119.432 36.5542 123.35 41.2238 126.671C58.5701 139.154 80.9382 141.982 98.5224 131.55L112.358 123.323Z" fill="#F3A250"/>
<path d="M135.952 75.9923C134.647 43.3505 108.955 14.3858 78.5184 11.2641C48.1376 8.19783 24.5359 32.1883 25.833 64.7745C27.1341 97.4123 52.8817 126.377 83.3101 129.447C113.695 132.565 137.261 108.63 135.952 75.9923Z" fill="#FFD475"/>
<path d="M78.229 14.0446C51.2358 10.8277 27.3048 32.4381 28.6059 64.6594C29.8355 95.9168 54.5083 123.763 83.584 126.698C113.136 129.515 134.385 106.373 133.167 76.1231C131.938 44.8657 107.265 17.0196 78.229 14.0446ZM82.3543 116.424C58.7923 114.044 38.8002 91.5931 37.7689 66.4047C36.7931 41.4623 54.4289 22.1287 79.4586 24.2787C103.021 26.6983 122.973 49.1894 124.004 74.3777C125.044 100.899 105.254 118.967 82.3543 116.424Z" fill="#FFB961"/>
<path d="M121.228 74.4888C120.256 50.5658 101.418 29.3402 79.1771 27.0435C56.8844 24.7983 39.5897 42.3508 40.5575 66.2739C41.5254 90.2008 60.3631 111.427 82.6558 113.668C104.897 115.968 122.196 98.3643 121.228 74.4888Z" fill="#F3A250"/>
<path d="M121.228 74.4889C120.256 50.5658 101.418 29.3402 79.1769 27.0435C66.2178 25.7345 54.9048 31.1252 47.9869 40.5817C54.7858 34.6912 63.8616 31.6567 73.9687 32.6642C96.2138 34.9649 115.052 56.1866 116.019 80.1136C116.4 90.066 113.643 98.9513 108.586 105.754C116.837 98.7252 121.779 87.5353 121.228 74.4889ZM79.0024 128.836C70.4224 127.254 62.2749 123.592 55.0555 118.444L41.2198 126.674C48.4431 131.871 56.5867 135.484 65.1666 137.067L79.0024 128.836ZM42.4733 106.793C35.8172 98.9394 30.7279 89.5464 28.0623 79.3718L14.2583 87.5829C17.0007 97.6741 21.9272 107.039 28.6891 115.016L42.4733 106.793ZM27.2333 48.8681L13.5086 57.0871C12.3067 62.093 11.8426 67.4282 12.0528 72.9974C12.0885 73.9256 12.1718 74.8538 12.2631 75.778L25.9957 67.6067C25.9084 66.6824 25.8727 65.7027 25.837 64.7745C25.6228 59.2053 26.0869 53.8661 27.2412 48.8681H27.2333Z" fill="#DD8536"/>
<path d="M44.5837 50.185C44.6434 50.0572 44.7385 49.9491 44.8578 49.8736C44.977 49.7982 45.1154 49.7585 45.2566 49.7593C45.3977 49.7602 45.5356 49.8015 45.654 49.8783C45.7724 49.9552 45.8662 50.0644 45.9244 50.193C47.281 53.168 48.4472 55.5877 48.6535 55.5083C48.8439 55.429 47.999 52.8864 46.9042 49.8122C46.8557 49.6796 46.8463 49.536 46.8771 49.3982C46.9078 49.2605 46.9774 49.1344 47.0776 49.0351C47.1779 48.9357 47.3045 48.8671 47.4425 48.8376C47.5804 48.808 47.724 48.8186 47.8562 48.8681C53.8617 51.1648 59.3794 53.1601 59.5341 52.7951C59.6808 52.4381 54.4052 49.8399 48.5781 47.1188C48.4505 47.0581 48.3427 46.9623 48.2674 46.8427C48.1921 46.7231 48.1524 46.5846 48.1528 46.4432C48.1532 46.3019 48.1938 46.1636 48.2698 46.0444C48.3458 45.9252 48.4541 45.8301 48.5821 45.7701C51.5254 44.4215 53.9252 43.2553 53.8419 43.049C53.7626 42.8626 51.2358 43.7035 48.1814 44.7943C48.0477 44.8426 47.903 44.8514 47.7644 44.8197C47.6258 44.788 47.4993 44.7172 47.3998 44.6156C47.3004 44.5141 47.2322 44.3861 47.2034 44.2469C47.1746 44.1077 47.1864 43.9631 47.2374 43.8304C53.0525 28.3882 52.3306 28.2731 45.492 43.1045C45.432 43.2323 45.3365 43.3401 45.217 43.4152C45.0975 43.4903 44.959 43.5295 44.8179 43.5283C44.6767 43.527 44.5389 43.4853 44.4208 43.4081C44.3026 43.3309 44.2091 43.2214 44.1513 43.0926C42.8026 40.1335 41.6364 37.7178 41.454 37.7932C41.2437 37.8765 42.0886 40.431 43.1914 43.4814C43.2409 43.6141 43.2511 43.7584 43.2209 43.8968C43.1906 44.0352 43.1211 44.162 43.0207 44.262C42.9203 44.362 42.7932 44.4309 42.6547 44.4606C42.5161 44.4903 42.3719 44.4795 42.2394 44.4294C36.2497 42.1406 30.7082 40.1454 30.5575 40.5024C30.4028 40.8713 35.6983 43.4615 41.5174 46.1747C41.6462 46.235 41.755 46.3308 41.8311 46.4508C41.9072 46.5709 41.9474 46.7102 41.947 46.8523C41.9466 46.9945 41.9056 47.1335 41.8287 47.2531C41.7519 47.3727 41.6425 47.4679 41.5135 47.5274C38.5623 48.884 36.1585 50.0502 36.2338 50.2366C36.3171 50.4429 38.8518 49.6019 41.8903 48.4913C42.0244 48.4409 42.1703 48.4304 42.3103 48.4611C42.4502 48.4918 42.5783 48.5624 42.679 48.6644C42.7797 48.7663 42.8487 48.8953 42.8777 49.0356C42.9067 49.176 42.8944 49.3217 42.8423 49.4552C37.0906 64.7388 37.6618 65.2148 44.5837 50.185Z" fill="white"/>
<path opacity="0.7" d="M69.4307 101.109C74.5477 104.152 79.0975 105.512 77.9987 107.591C76.9079 109.653 71.8028 108.924 66.6858 105.881C61.5688 102.839 59.1332 98.6896 60.2201 96.6309C61.3189 94.5484 64.3137 98.0668 69.4307 101.109ZM54.286 90.6531C55.2062 89.9312 56.7651 90.3913 57.7687 91.6448C58.7683 92.9022 58.8437 94.4889 57.9194 95.2108C57.019 95.9129 55.476 95.4726 54.4724 94.2191C53.4728 92.9617 53.3816 91.3552 54.286 90.6491V90.6531Z" fill="white"/>
<path d="M60.3669 60.6888C60.6644 58.6182 62.2432 55.9487 64.2186 55.0562C64.9128 58.0351 63.2031 60.2922 60.3709 60.6888H60.3669ZM102.009 80.0898C102.009 80.0898 102.572 86.1787 97.6061 87.8963C92.6398 89.6178 102.009 80.0898 102.009 80.0898Z" fill="#DD8536"/>
<path d="M100.339 84.7032C100.165 85.4053 99.8314 86.0518 99.3475 86.5675C98.9072 87.1308 98.3082 87.5988 97.6061 87.8963C90.1297 90.5691 82.5256 92.8699 74.8215 94.7904C71.5094 95.4449 69.0302 93.172 68.4511 90.5143C66.3709 81.4324 63.7563 72.4812 60.6208 63.7075C59.4903 60.6929 61.0413 57.9162 63.8061 57.0475C71.7236 55.1633 79.0698 53.0293 85.714 50.6413C87.8679 49.8599 90.8588 51.3157 91.9814 54.2708C95.2711 63.048 98.1109 71.9873 100.49 81.0538C100.827 82.5215 100.74 83.2672 100.343 84.7032H100.339Z" fill="#DD8536"/>
<path d="M98.8795 85.56C91.4017 88.2315 83.7962 90.5311 76.0909 92.4501C72.989 93.0649 70.3472 91.0419 69.7204 88.178C67.6403 79.0961 65.0257 70.1449 61.8902 61.3712C60.7676 58.3764 62.2869 55.5878 65.0755 54.7072C72.9969 52.823 80.3392 50.6929 86.9874 48.301C89.1016 47.5354 92.1044 48.9079 93.2547 51.9305C96.5431 60.7078 99.3816 69.6471 101.759 78.7135C102.473 81.8392 101.117 84.6001 98.8795 85.56Z" fill="#F8F9FE"/>
<path d="M73.2786 90.5619C76.8811 83.9859 80.1098 77.212 82.9493 70.2723C88.9192 74.1279 94.6351 78.0074 100.109 81.9145C99.9812 82.3918 99.748 82.8343 99.4268 83.2097C99.1056 83.5852 98.7044 83.884 98.2527 84.0843C90.8564 86.727 83.3344 89.0039 75.7141 90.907C75.3054 91.0122 74.8799 91.0359 74.462 90.9767C74.0441 90.9175 73.642 90.7766 73.2786 90.5619Z" fill="#B0B8CF"/>
<path d="M82.9492 70.2684C85.6164 63.6949 87.9037 56.9735 89.7997 50.1376C90.6049 50.566 91.3348 51.399 91.7989 52.5255C95.0501 61.2404 97.8568 70.1147 100.208 79.1141C100.47 80.1217 100.434 81.0975 100.109 81.9146C94.4786 77.9036 88.7572 74.0179 82.9492 70.2684Z" fill="#C9CEE2"/>
<path d="M89.8076 50.1176C87.9077 56.9632 85.6192 63.695 82.9532 70.2802C76.5082 66.0949 69.9612 62.0688 63.3181 58.2056C63.5177 57.7263 63.8223 57.2978 64.2095 56.9518C64.5967 56.6058 65.0566 56.3511 65.5553 56.2064C72.9868 54.4791 80.3177 52.3445 87.5148 49.8121C88.2645 49.5583 89.042 49.6733 89.8076 50.1176Z" fill="#E3E7F0"/>
<path d="M63.33 58.1978C69.9587 62.0762 76.5 66.1021 82.9492 70.2723C80.1091 77.2117 76.8804 83.9856 73.2784 90.5618C72.7723 90.2792 72.3328 89.891 71.9899 89.4235C71.647 88.956 71.4087 88.4203 71.2911 87.8526C69.1854 78.6956 66.543 69.6704 63.3776 60.8237C63.031 59.9857 63.014 59.0477 63.33 58.1978Z" fill="#C9CEE2"/>
<path d="M80.716 75.5163C80.716 75.5163 82.9691 70.1732 88.3955 73.8423C88.3955 73.8423 83.1159 70.308 85.0913 64.7269C85.0913 64.7269 82.9374 70.1692 77.6577 66.8927C81.2277 69.0665 82.2987 71.8987 80.716 75.5163Z" fill="#F1F6FA"/>
</svg>
