<svg width="148" height="148" viewBox="0 0 148 148" fill="none" xmlns="http://www.w3.org/2000/svg">
<path d="M74.0052 14C69.7279 14 65.4336 16.1328 63.3269 20.4023L51.3968 44.573C51.1424 45.0983 50.763 45.5531 50.292 45.8976C49.8209 46.2421 49.2726 46.4659 48.695 46.5492L22.0142 50.4415C12.5876 51.812 8.60005 64.0592 15.42 70.7095L34.7091 89.5353C35.5654 90.3706 35.9791 91.5636 35.7794 92.7423L31.2006 119.343C29.5899 128.728 40.0346 136.28 48.4639 131.846L72.3214 119.303C72.8386 119.029 73.4149 118.886 74 118.886C74.5851 118.886 75.1613 119.029 75.6785 119.303L99.536 131.846C107.965 136.28 118.41 128.73 116.799 119.342L112.222 92.741C112.12 92.1633 112.161 91.5695 112.34 91.011C112.519 90.4524 112.832 89.946 113.25 89.5353L132.581 70.7095C139.4 64.0592 135.411 51.812 125.986 50.4415L99.305 46.5492C98.7274 46.466 98.1789 46.2423 97.7079 45.8977C97.2368 45.5532 96.8575 45.0983 96.6031 44.573L84.6731 20.4023C82.5677 16.1328 78.2825 14 74.0052 14Z" fill="url(#paint0_linear_2022_15786)"/>
<defs>
<linearGradient id="paint0_linear_2022_15786" x1="12" y1="14" x2="139.084" y2="17.3858" gradientUnits="userSpaceOnUse">
<stop stop-color="#B3ACFC"/>
<stop offset="1" stop-color="#584CF4"/>
</linearGradient>
</defs>
</svg>
