<svg width="148" height="148" viewBox="0 0 148 148" fill="none" xmlns="http://www.w3.org/2000/svg">
<path d="M70.6916 117.032L42.7865 134.904C39.8848 136.763 36.0916 135.81 34.3141 132.776C33.4459 131.294 33.1871 129.509 33.5963 127.825L37.916 110.049C39.4753 103.632 43.6753 98.2682 49.3841 95.4024L79.8272 80.121C81.2465 79.4086 81.8447 77.6282 81.1633 76.1443C80.6114 74.9426 79.3635 74.2701 78.1071 74.4976L44.22 80.6312C37.3315 81.878 30.2675 79.8893 24.9092 75.1947L14.204 65.8152C11.5959 63.5301 11.2535 59.4672 13.4391 56.7405C14.5021 55.4142 16.0308 54.5909 17.6807 54.4559L50.3884 51.7797C52.6991 51.5907 54.7129 50.0618 55.5999 47.8231L68.218 15.978C69.5203 12.6912 73.1245 11.1305 76.2683 12.4921C77.7777 13.1459 78.977 14.3998 79.6024 15.978L92.2204 47.8231C93.1074 50.0618 95.1211 51.5907 97.4319 51.7797L130.32 54.4706C133.712 54.7482 136.246 57.8484 135.981 61.3953C135.854 63.1014 135.081 64.6844 133.836 65.7947L108.754 88.1505C106.988 89.7243 106.218 92.2017 106.761 94.5602L114.472 128.051C115.268 131.51 113.232 134.988 109.924 135.821C108.334 136.221 106.657 135.944 105.263 135.051L77.1287 117.032C75.1536 115.767 72.6667 115.767 70.6916 117.032Z" fill="#F0EFFB"/>
</svg>
