<svg width="84" height="84" viewBox="0 0 84 84" fill="none" xmlns="http://www.w3.org/2000/svg">
<g clip-path="url(#clip0_672_5428)">
<path d="M2 42C2 34.5655 2 30.8483 2.61487 27.7571C5.13988 15.063 15.063 5.13988 27.7571 2.61487C30.8483 2 34.5655 2 42 2C49.4345 2 53.1517 2 56.2429 2.61487C68.937 5.13988 78.8601 15.063 81.3851 27.7571C82 30.8483 82 34.5655 82 42C82 49.4345 82 53.1517 81.3851 56.2429C78.8601 68.937 68.937 78.8601 56.2429 81.3851C53.1517 82 49.4345 82 42 82C34.5655 82 30.8483 82 27.7571 81.3851C15.063 78.8601 5.13988 68.937 2.61487 56.2429C2 53.1517 2 49.4345 2 42Z" fill="#191B20"/>
<path d="M40.7193 58.6574L29.9173 65.5759C28.7941 66.2952 27.3258 65.9264 26.6377 64.7521C26.3016 64.1785 26.2015 63.4874 26.3598 62.8355L28.032 55.9545C28.6356 53.4704 30.2614 51.3941 32.4713 50.2848L44.2557 44.3694C44.8051 44.0937 45.0367 43.4045 44.7729 42.8301C44.5593 42.3649 44.0762 42.1046 43.5899 42.1926L30.4723 44.5669C27.8058 45.0496 25.0713 44.2797 22.9971 42.4625L18.8532 38.8317C17.8436 37.9471 17.711 36.3744 18.5571 35.3189C18.9686 34.8055 19.5603 34.4868 20.199 34.4346L32.86 33.3986C33.7545 33.3254 34.534 32.7336 34.8774 31.867L39.7618 19.5399C40.2659 18.2676 41.6611 17.6634 42.878 18.1905C43.4623 18.4436 43.9266 18.929 44.1687 19.5399L49.0531 31.867C49.3964 32.7336 50.1759 33.3254 51.0704 33.3986L63.8012 34.4402C65.1143 34.5477 66.0954 35.7478 65.9926 37.1207C65.9433 37.7812 65.6443 38.394 65.1622 38.8237L55.4533 47.4776C54.7695 48.0868 54.4715 49.0458 54.6816 49.9588L57.6665 62.9228C57.9748 64.2618 57.1865 65.6084 55.9061 65.9307C55.2905 66.0857 54.6416 65.9783 54.1019 65.6325L43.2111 58.6574C42.4465 58.1678 41.4839 58.1678 40.7193 58.6574Z" fill="url(#paint0_linear_672_5428)"/>
</g>
<path d="M1.63409 27.562C0.999945 30.7501 0.999964 34.5559 1 41.8345L1 42L1 42.1655C0.999964 49.4441 0.999945 53.2499 1.63409 56.438C4.23801 69.5288 14.4712 79.762 27.562 82.3659C30.7501 83.0001 34.5559 83 41.8345 83H42H42.1655C49.4441 83 53.2499 83.0001 56.438 82.3659C69.5288 79.762 79.762 69.5288 82.3659 56.438C83.0001 53.2499 83 49.4441 83 42.1655V42V41.8345C83 34.5559 83.0001 30.7501 82.3659 27.562C79.762 14.4712 69.5288 4.23801 56.438 1.63409C53.2499 0.999945 49.4441 0.999964 42.1655 1L42 1L41.8345 1C34.5559 0.999964 30.7501 0.999945 27.562 1.63409C14.4712 4.23801 4.23801 14.4712 1.63409 27.562Z" stroke="#F0EFFB" stroke-width="2"/>
<defs>
<linearGradient id="paint0_linear_672_5428" x1="18" y1="18" x2="67.1966" y2="19.2594" gradientUnits="userSpaceOnUse">
<stop stop-color="#B3ACFC"/>
<stop offset="1" stop-color="#584CF4"/>
</linearGradient>
<clipPath id="clip0_672_5428">
<path d="M2 42C2 34.5655 2 30.8483 2.61487 27.7571C5.13988 15.063 15.063 5.13988 27.7571 2.61487C30.8483 2 34.5655 2 42 2C49.4345 2 53.1517 2 56.2429 2.61487C68.937 5.13988 78.8601 15.063 81.3851 27.7571C82 30.8483 82 34.5655 82 42C82 49.4345 82 53.1517 81.3851 56.2429C78.8601 68.937 68.937 78.8601 56.2429 81.3851C53.1517 82 49.4345 82 42 82C34.5655 82 30.8483 82 27.7571 81.3851C15.063 78.8601 5.13988 68.937 2.61487 56.2429C2 53.1517 2 49.4345 2 42Z" fill="white"/>
</clipPath>
</defs>
</svg>
