<svg width="56" height="57" viewBox="0 0 56 57" fill="none" xmlns="http://www.w3.org/2000/svg">
<path fill-rule="evenodd" clip-rule="evenodd" d="M47.25 28.5C47.25 33.6054 45.2219 38.5017 41.6118 42.1118C38.0017 45.7219 33.1054 47.75 28 47.75C22.8946 47.75 17.9983 45.7219 14.3882 42.1118C10.7781 38.5017 8.75 33.6054 8.75 28.5C8.75 23.3946 10.7781 18.4983 14.3882 14.8882C17.9983 11.2781 22.8946 9.25 28 9.25C33.1054 9.25 38.0017 11.2781 41.6118 14.8882C45.2219 18.4983 47.25 23.3946 47.25 28.5ZM52.5 28.5C52.5 34.9978 49.9188 41.2295 45.3241 45.8241C40.7295 50.4188 34.4978 53 28 53C21.5022 53 15.2705 50.4188 10.6759 45.8241C6.08124 41.2295 3.5 34.9978 3.5 28.5C3.5 22.0022 6.08124 15.7705 10.6759 11.1759C15.2705 6.58124 21.5022 4 28 4C34.4978 4 40.7295 6.58124 45.3241 11.1759C49.9188 15.7705 52.5 22.0022 52.5 28.5ZM32.655 38.4225C32.7981 38.7481 33.0059 39.0412 33.2658 39.284C33.5256 39.5268 33.8321 39.7143 34.1666 39.8351C34.5011 39.9559 34.8567 40.0074 35.2117 39.9866C35.5668 39.9658 35.9139 39.873 36.232 39.714C36.5501 39.5549 36.8325 39.3329 37.0622 39.0613C37.2919 38.7898 37.464 38.4744 37.5681 38.1343C37.6722 37.7943 37.7061 37.4366 37.6677 37.083C37.6294 36.7294 37.5196 36.3873 37.345 36.0775C35.938 33.246 32.2665 31.125 28 31.125C23.7335 31.125 20.0655 33.246 18.655 36.0775C18.4804 36.3873 18.3706 36.7294 18.3323 37.083C18.2939 37.4366 18.3278 37.7943 18.4319 38.1343C18.536 38.4744 18.7081 38.7898 18.9378 39.0613C19.1675 39.3329 19.4499 39.5549 19.768 39.714C20.0861 39.873 20.4332 39.9658 20.7883 39.9866C21.1433 40.0074 21.4989 39.9559 21.8334 39.8351C22.1679 39.7143 22.4744 39.5268 22.7342 39.284C22.9941 39.0412 23.2019 38.7481 23.345 38.4225C23.6845 37.754 25.263 36.375 28 36.375C30.737 36.375 32.3155 37.754 32.655 38.4225ZM35 28.5C34.3038 28.5 33.6361 28.2234 33.1438 27.7312C32.6516 27.2389 32.375 26.5712 32.375 25.875V22.375C32.375 21.6788 32.6516 21.0111 33.1438 20.5188C33.6361 20.0266 34.3038 19.75 35 19.75C35.6962 19.75 36.3639 20.0266 36.8562 20.5188C37.3484 21.0111 37.625 21.6788 37.625 22.375V25.875C37.625 26.5712 37.3484 27.2389 36.8562 27.7312C36.3639 28.2234 35.6962 28.5 35 28.5ZM18.375 25.875C18.375 26.5712 18.6516 27.2389 19.1438 27.7312C19.6361 28.2234 20.3038 28.5 21 28.5C21.6962 28.5 22.3639 28.2234 22.8562 27.7312C23.3484 27.2389 23.625 26.5712 23.625 25.875V22.375C23.625 21.6788 23.3484 21.0111 22.8562 20.5188C22.3639 20.0266 21.6962 19.75 21 19.75C20.3038 19.75 19.6361 20.0266 19.1438 20.5188C18.6516 21.0111 18.375 21.6788 18.375 22.375V25.875Z" fill="#252830"/>
</svg>
