<svg width="148" height="148" viewBox="0 0 148 148" fill="none" xmlns="http://www.w3.org/2000/svg">
<path d="M134.886 62.254C134.592 60.7271 133.25 59.6257 131.694 59.6257H124.091C122.708 59.6257 121.482 58.748 121.023 57.4423C120.425 55.7379 119.734 54.0749 118.959 52.4604C118.36 51.2107 118.604 49.7227 119.583 48.7453L124.957 43.372C126.056 42.2706 126.226 40.5419 125.353 39.2557C123.142 35.9935 120.627 32.948 117.843 30.1599L117.84 30.1575C115.053 27.3718 112.007 24.857 108.744 22.647C107.458 21.7741 105.729 21.9443 104.628 23.0433L99.2547 28.4166C98.2773 29.3965 96.7893 29.6396 95.5395 29.0415C93.9251 28.2659 92.262 27.5754 90.5576 26.9772C89.252 26.5177 88.3743 25.2923 88.3743 23.9089V16.306C88.3743 14.7499 87.2729 13.4078 85.746 13.1136C81.9433 12.3842 78.0166 12 74 12C69.9834 12 66.0567 12.3842 62.254 13.1136C60.7271 13.4078 59.6257 14.7499 59.6257 16.306V23.9089C59.6257 25.2923 58.748 26.5177 57.4424 26.9772C55.738 27.5754 54.0749 28.2659 52.4605 29.0415C51.2107 29.6396 49.7227 29.3965 48.7453 28.4166L43.372 23.0433C42.2706 21.9443 40.5419 21.7741 39.2557 22.647C35.9929 24.8579 32.9473 27.3735 30.1599 30.1599C27.3734 32.9472 24.8578 35.9928 22.647 39.2557C21.7741 40.5419 21.9443 42.2706 23.0433 43.372L28.4166 48.7453C29.3965 49.7227 29.6396 51.2107 29.0415 52.4604C28.2659 54.0749 27.5754 55.7379 26.9773 57.4423C26.5177 58.748 25.2923 59.6257 23.9089 59.6257H16.306C14.7499 59.6257 13.4078 60.7271 13.1136 62.254C12.3842 66.0567 12 69.9833 12 74C12 78.0166 12.3842 81.9432 13.1136 85.7459C13.4078 87.2728 14.7499 88.3742 16.306 88.3742H23.9089C25.2923 88.3742 26.5177 89.2519 26.9773 90.5576C27.5754 92.262 28.2659 93.925 29.0415 95.5395C29.6396 96.7892 29.3965 98.2772 28.4166 99.2546L23.0433 104.628C21.9443 105.729 21.7741 107.458 22.647 108.744C24.8579 112.007 27.3735 115.053 30.1599 117.84C32.9472 120.627 35.9928 123.142 39.2557 125.353C40.5419 126.226 42.2706 126.056 43.372 124.957L48.7453 119.583C49.7227 118.603 51.2107 118.36 52.4605 118.958C54.0749 119.734 55.738 120.425 57.4424 121.023C58.748 121.482 59.6257 122.708 59.6257 124.091V131.694C59.6257 133.25 60.7271 134.592 62.254 134.886C66.0567 135.616 69.9834 136 74 136C78.0166 136 81.9433 135.616 85.746 134.886C87.2729 134.592 88.3743 133.25 88.3743 131.694V124.091C88.3743 122.708 89.252 121.482 90.5576 121.023C92.262 120.425 93.9251 119.734 95.5395 118.958C96.7893 118.36 98.2773 118.603 99.2547 119.583L104.628 124.957C105.729 126.056 107.458 126.226 108.744 125.353C112.007 123.143 115.053 120.628 117.84 117.842L117.843 117.84C120.627 115.052 123.142 112.006 125.353 108.744C126.226 107.458 126.056 105.729 124.957 104.628L119.583 99.2546C118.604 98.2772 118.36 96.7892 118.959 95.5395C119.734 93.925 120.425 92.262 121.023 90.5576C121.482 89.2519 122.708 88.3742 124.091 88.3742H131.694C133.25 88.3742 134.592 87.2728 134.886 85.7459C135.616 81.9432 136 78.0166 136 74C136 69.9833 135.616 66.0567 134.886 62.254ZM74 89.072C65.7893 89.072 59.1322 82.3225 59.1322 74C59.1322 65.6774 65.7893 58.9279 74 58.9279C82.2107 58.9279 88.8678 65.6774 88.8678 74C88.8678 82.3225 82.2107 89.072 74 89.072Z" fill="url(#paint0_linear_2013_15766)"/>
<path d="M32.0565 28.3438C29.9619 30.2667 28.0025 32.3318 26.192 34.5243C24.9361 36.0444 23.7531 37.6234 22.6471 39.2557C21.7742 40.5419 21.9444 42.2706 23.0434 43.3721L28.4167 48.7454C29.3966 49.7228 29.6397 51.2108 29.0416 52.4605C29.0416 52.4605 33.3743 45.235 37.7347 40.072C39.3015 38.2166 39.1841 35.4711 37.4668 33.7538L32.0565 28.3438Z" fill="url(#paint1_linear_2013_15766)"/>
<path d="M125.353 39.2557C123.142 35.9936 120.627 32.9481 117.842 30.16L117.84 30.1576C117.22 29.5376 116.588 28.9321 115.944 28.3438L110.533 33.754C108.816 35.4711 108.699 38.2168 110.265 40.0722C114.626 45.235 118.958 52.4605 118.958 52.4605C118.36 51.2108 118.604 49.7228 119.583 48.7454L124.957 43.3721C126.056 42.2706 126.226 40.5419 125.353 39.2557Z" fill="url(#paint2_linear_2013_15766)"/>
<path d="M26.9773 90.5381V90.5576C26.5177 89.2519 25.2923 88.3742 23.9089 88.3742H16.306C14.7499 88.3742 13.4078 87.2728 13.1136 85.7459C12.3842 81.9432 12 78.0166 12 73.9999C12 73.5404 12.0073 73.0809 12.017 72.6213H21.8665C22.363 72.6213 22.843 72.6923 23.2966 72.8251C23.8119 72.9756 24.1569 73.4548 24.1569 73.9917V73.9999C24.1569 79.7939 25.1513 85.3617 26.9773 90.5381Z" fill="url(#paint3_linear_2013_15766)"/>
<path d="M136 73.9999C136 78.0166 135.616 81.9432 134.886 85.7459C134.592 87.2728 133.25 88.3742 131.694 88.3742H124.091C122.708 88.3742 121.482 89.2519 121.023 90.5576V90.5381C122.849 85.3617 123.843 79.7939 123.843 73.9999V73.9917C123.843 73.4548 124.188 72.9758 124.703 72.8251C125.168 72.6896 125.649 72.621 126.133 72.6213H135.983C135.993 73.0809 136 73.5404 136 73.9999Z" fill="url(#paint4_linear_2013_15766)"/>
<path d="M29.2551 96.1272C29.5459 97.2327 29.2468 98.4268 28.4167 99.2547L23.0434 104.628C21.9444 105.729 21.7742 107.458 22.6471 108.744C24.858 112.007 27.3736 115.053 30.16 117.84C32.9473 120.627 35.9929 123.142 39.2558 125.353C40.542 126.226 42.2707 126.056 43.3721 124.957L48.7454 119.583C49.7228 118.604 51.2108 118.36 52.4606 118.959C54.075 119.734 55.7381 120.425 57.4425 121.023C58.7481 121.482 59.6258 122.708 59.6258 124.091V131.694C59.6258 133.25 60.7272 134.592 62.2541 134.886C66.0568 135.616 69.9835 136 74.0001 136C78.0167 136 81.9434 135.616 85.7461 134.886C87.273 134.592 88.3744 133.25 88.3744 131.694V124.091C88.3744 122.708 89.2521 121.482 90.5578 121.023C92.2622 120.425 93.9252 119.734 95.5396 118.959C96.7894 118.36 98.2774 118.604 99.2548 119.583L104.628 124.957C105.73 126.056 107.458 126.226 108.744 125.353C112.007 123.143 115.053 120.628 117.84 117.843L117.843 117.84C120.628 115.052 123.142 112.006 125.353 108.744C126.226 107.458 126.056 105.729 124.957 104.628L119.583 99.2547C118.753 98.4268 118.454 97.2327 118.745 96.1272H29.2551Z" fill="url(#paint5_linear_2013_15766)"/>
<path d="M73.9997 31.6941C50.6722 31.6941 31.6938 50.6724 31.6938 73.9999C31.6938 97.3275 50.6722 116.306 73.9997 116.306C97.3273 116.306 116.306 97.3275 116.306 73.9999C116.306 50.6724 97.3273 31.6941 73.9997 31.6941ZM73.9997 89.072C65.789 89.072 59.1319 82.3225 59.1319 73.9999C59.1319 65.6774 65.789 58.9279 73.9997 58.9279C82.2105 58.9279 88.8676 65.6774 88.8676 73.9999C88.8676 82.3225 82.2105 89.072 73.9997 89.072Z" fill="url(#paint6_linear_2013_15766)"/>
<path d="M121.023 90.5575C121.483 89.2518 122.708 88.3741 124.092 88.3741H131.695C133.251 88.3741 134.593 87.2727 134.887 85.7458C134.99 85.2065 135.085 84.6641 135.174 84.1197L100.524 49.4692C93.9305 42.479 84.5885 38.1082 74.2437 38.1082C54.3188 38.1082 38.1089 54.3181 38.1089 74.243C38.1089 84.5879 42.4798 93.93 49.4702 100.523L84.1207 135.174C84.6648 135.084 85.2072 134.99 85.7468 134.886C87.2737 134.592 88.3751 133.25 88.3751 131.694V124.091C88.3751 122.708 89.2528 121.482 90.5585 121.023C92.2628 120.425 93.9259 119.734 95.5403 118.959C96.7901 118.36 98.2781 118.604 99.2555 119.583L104.629 124.957C105.73 126.056 107.459 126.226 108.745 125.353C112.008 123.143 115.053 120.628 117.841 117.843L117.843 117.84C120.628 115.052 123.143 112.007 125.354 108.744C126.227 107.458 126.056 105.729 124.958 104.628L119.584 99.2547C118.604 98.2773 118.361 96.7893 118.959 95.5396C119.738 93.918 120.427 92.2548 121.023 90.5575ZM74.0006 89.0719C65.7898 89.0719 59.1327 82.3224 59.1327 73.9998C59.1327 65.6772 65.7898 58.9277 74.0006 58.9277C82.2113 58.9277 88.8684 65.6772 88.8684 73.9998C88.8684 82.3224 82.2113 89.0719 74.0006 89.0719Z" fill="url(#paint7_linear_2013_15766)"/>
<path d="M100.524 49.47C100.223 49.149 99.9139 48.8354 99.6003 48.5266C105.966 55.0427 109.892 63.9488 109.892 73.7569C109.892 93.682 93.6823 109.892 73.7572 109.892C63.9491 109.892 55.0429 105.965 48.5269 99.6C48.8356 99.9136 49.1493 100.222 49.4702 100.524L84.1197 135.173C84.6643 135.083 85.2065 134.991 85.7463 134.886C87.2732 134.592 88.3746 133.25 88.3746 131.694V124.091C88.3746 122.708 89.2524 121.482 90.558 121.023C92.2624 120.425 93.9254 119.734 95.5399 118.959C96.7896 118.36 98.2776 118.604 99.255 119.583L104.628 124.957C105.73 126.056 107.458 126.226 108.745 125.353C112.007 123.143 115.053 120.628 117.84 117.843L117.843 117.84C120.628 115.052 123.143 112.007 125.353 108.744C126.226 107.458 126.056 105.729 124.957 104.628L119.584 99.2547C118.604 98.2773 118.361 96.7893 118.959 95.5396C119.734 93.9252 120.425 92.2621 121.023 90.5577C121.483 89.2521 122.708 88.3743 124.091 88.3743H131.694C133.25 88.3743 134.593 87.2729 134.887 85.746C134.991 85.2063 135.084 84.6641 135.174 84.1194L100.524 49.47Z" fill="url(#paint8_linear_2013_15766)"/>
<path d="M74.0005 110.135C54.0757 110.135 37.8657 93.9246 37.8657 73.9998C37.8657 54.0749 54.0757 37.865 74.0005 37.865C93.9254 37.865 110.135 54.0749 110.135 73.9998C110.135 93.9246 93.9254 110.135 74.0005 110.135ZM74.0005 48.8062C60.1086 48.8062 48.8069 60.1079 48.8069 73.9998C48.8069 87.8917 60.1086 99.1934 74.0005 99.1934C87.8924 99.1934 99.1942 87.8917 99.1942 73.9998C99.1942 60.1079 87.8924 48.8062 74.0005 48.8062Z" fill="url(#paint9_linear_2013_15766)"/>
<path d="M98.8521 78.1335C96.8742 90.0657 86.4837 99.1938 73.9993 99.1938C61.515 99.1938 51.1245 90.0657 49.1466 78.1335H38.1023C40.16 96.1189 55.4723 110.135 73.9993 110.135C92.5264 110.135 107.839 96.1189 109.896 78.1335H98.8521Z" fill="url(#paint10_linear_2013_15766)"/>
<path d="M41.6932 111.797C46.5219 115.658 52.4603 118.959 52.4603 118.959C51.2105 118.36 49.7225 118.604 48.7451 119.583L43.3718 124.957C42.2704 126.056 40.5417 126.226 39.2555 125.353C35.9269 123.098 32.8246 120.525 29.9919 117.672V117.67L35.5233 112.139C37.1927 110.469 39.8492 110.323 41.6932 111.797Z" fill="url(#paint11_linear_2013_15766)"/>
<path d="M118.01 117.672L117.843 117.84L117.84 117.843C115.053 120.628 112.007 123.143 108.744 125.353C107.458 126.226 105.729 126.056 104.628 124.957L99.2547 119.583C98.2773 118.604 96.7893 118.36 95.5396 118.959C95.5396 118.959 101.478 115.658 106.306 111.797C108.15 110.323 110.807 110.469 112.476 112.139L118.01 117.672Z" fill="url(#paint12_linear_2013_15766)"/>
<defs>
<linearGradient id="paint0_linear_2013_15766" x1="32.8719" y1="32.8706" x2="108.041" y2="108.039" gradientUnits="userSpaceOnUse">
<stop stop-color="#EEF4FF"/>
<stop offset="1" stop-color="#CFE7FD"/>
</linearGradient>
<linearGradient id="paint1_linear_2013_15766" x1="31.6869" y1="39.2241" x2="23.1346" y2="47.7765" gradientUnits="userSpaceOnUse">
<stop stop-color="#8AAADC" stop-opacity="0"/>
<stop offset="1" stop-color="#8AAADC"/>
</linearGradient>
<linearGradient id="paint2_linear_2013_15766" x1="114.668" y1="37.2642" x2="124.272" y2="47.5975" gradientUnits="userSpaceOnUse">
<stop stop-color="#8AAADC" stop-opacity="0"/>
<stop offset="1" stop-color="#8AAADC"/>
</linearGradient>
<linearGradient id="paint3_linear_2013_15766" x1="19.4886" y1="75.0534" x2="19.4886" y2="90.7764" gradientUnits="userSpaceOnUse">
<stop stop-color="#8AAADC" stop-opacity="0"/>
<stop offset="1" stop-color="#8AAADC"/>
</linearGradient>
<linearGradient id="paint4_linear_2013_15766" x1="128.511" y1="75.0534" x2="128.511" y2="90.7764" gradientUnits="userSpaceOnUse">
<stop stop-color="#8AAADC" stop-opacity="0"/>
<stop offset="1" stop-color="#8AAADC"/>
</linearGradient>
<linearGradient id="paint5_linear_2013_15766" x1="74.0001" y1="104.392" x2="74.0001" y2="134.314" gradientUnits="userSpaceOnUse">
<stop stop-color="#8AAADC" stop-opacity="0"/>
<stop offset="1" stop-color="#8AAADC"/>
</linearGradient>
<linearGradient id="paint6_linear_2013_15766" x1="101.894" y1="101.895" x2="47.0123" y2="47.0124" gradientUnits="userSpaceOnUse">
<stop stop-color="#EEF4FF"/>
<stop offset="1" stop-color="#CFE7FD"/>
</linearGradient>
<linearGradient id="paint7_linear_2013_15766" x1="84.7796" y1="84.7788" x2="54.8051" y2="54.8044" gradientUnits="userSpaceOnUse">
<stop stop-color="#8AAADC" stop-opacity="0"/>
<stop offset="1" stop-color="#8AAADC"/>
</linearGradient>
<linearGradient id="paint8_linear_2013_15766" x1="114.928" y1="114.928" x2="92.3261" y2="92.3258" gradientUnits="userSpaceOnUse">
<stop stop-color="#8AAADC" stop-opacity="0"/>
<stop offset="1" stop-color="#8AAADC"/>
</linearGradient>
<linearGradient id="paint9_linear_2013_15766" x1="49.2827" y1="49.282" x2="98.5639" y2="98.5632" gradientUnits="userSpaceOnUse">
<stop stop-color="#76CCF8"/>
<stop offset="0.833" stop-color="#518EF8"/>
<stop offset="1" stop-color="#4981F8"/>
</linearGradient>
<linearGradient id="paint10_linear_2013_15766" x1="73.9993" y1="85.1845" x2="73.9993" y2="110.003" gradientUnits="userSpaceOnUse">
<stop stop-color="#4071F7" stop-opacity="0"/>
<stop offset="1" stop-color="#30569F"/>
</linearGradient>
<linearGradient id="paint11_linear_2013_15766" x1="40.6827" y1="117.772" x2="46.0317" y2="123.121" gradientUnits="userSpaceOnUse">
<stop stop-color="#8AAADC" stop-opacity="0"/>
<stop offset="1" stop-color="#8AAADC"/>
</linearGradient>
<linearGradient id="paint12_linear_2013_15766" x1="108.959" y1="116.132" x2="101.92" y2="123.17" gradientUnits="userSpaceOnUse">
<stop stop-color="#8AAADC" stop-opacity="0"/>
<stop offset="1" stop-color="#8AAADC"/>
</linearGradient>
</defs>
</svg>
