<svg width="84" height="84" viewBox="0 0 84 84" fill="none" xmlns="http://www.w3.org/2000/svg">
<g clip-path="url(#clip0_451_2333)">
<path d="M2 42C2 34.5655 2 30.8483 2.61487 27.7571C5.13988 15.063 15.063 5.13988 27.7571 2.61487C30.8483 2 34.5655 2 42 2C49.4345 2 53.1517 2 56.2429 2.61487C68.937 5.13988 78.8601 15.063 81.3851 27.7571C82 30.8483 82 34.5655 82 42C82 49.4345 82 53.1517 81.3851 56.2429C78.8601 68.937 68.937 78.8601 56.2429 81.3851C53.1517 82 49.4345 82 42 82C34.5655 82 30.8483 82 27.7571 81.3851C15.063 78.8601 5.13988 68.937 2.61487 56.2429C2 53.1517 2 49.4345 2 42Z" fill="#191B20"/>
<path d="M68.3293 36.9207C68.2021 36.2604 67.6217 35.7841 66.9488 35.7841H63.661C63.0628 35.7841 62.5329 35.4045 62.3342 34.8399C62.0755 34.1029 61.7769 33.3837 61.4415 32.6856C61.1829 32.1452 61.288 31.5017 61.7118 31.0791L64.0354 28.7555C64.5106 28.2792 64.5842 27.5316 64.2067 26.9754C63.2507 25.5648 62.1633 24.2478 60.9589 23.0421L60.9579 23.0411C59.7525 21.8365 58.4355 20.749 57.0246 19.7933C56.4684 19.4159 55.7208 19.4894 55.2446 19.9647L52.921 22.2883C52.4983 22.712 51.8548 22.8171 51.3144 22.5585C50.6163 22.2231 49.8971 21.9245 49.1601 21.6659C48.5955 21.4671 48.2159 20.9372 48.2159 20.339V17.0512C48.2159 16.3783 47.7396 15.798 47.0794 15.6708C45.435 15.3553 43.7369 15.1892 42 15.1892C40.2631 15.1892 38.5651 15.3553 36.9207 15.6708C36.2604 15.798 35.7841 16.3783 35.7841 17.0512V20.339C35.7841 20.9372 35.4046 21.4671 34.84 21.6659C34.1029 21.9245 33.3838 22.2231 32.6856 22.5585C32.1452 22.8171 31.5017 22.712 31.0791 22.2883L28.7555 19.9647C28.2792 19.4894 27.5316 19.4159 26.9755 19.7933C25.5645 20.7494 24.2475 21.8372 23.0421 23.0421C21.8372 24.2475 20.7493 25.5645 19.7933 26.9754C19.4159 27.5316 19.4895 28.2792 19.9647 28.7555L22.2883 31.0791C22.712 31.5017 22.8171 32.1452 22.5585 32.6856C22.2231 33.3837 21.9245 34.1029 21.6659 34.8399C21.4671 35.4045 20.9372 35.7841 20.339 35.7841H17.0512C16.3783 35.7841 15.798 36.2604 15.6708 36.9207C15.3553 38.5651 15.1892 40.2631 15.1892 42C15.1892 43.7369 15.3553 45.4349 15.6708 47.0793C15.798 47.7396 16.3783 48.2159 17.0512 48.2159H20.339C20.9372 48.2159 21.4671 48.5955 21.6659 49.1601C21.9245 49.8971 22.2231 50.6163 22.5585 51.3144C22.8171 51.8548 22.712 52.4983 22.2883 52.9209L19.9647 55.2445C19.4895 55.7208 19.4159 56.4684 19.7933 57.0246C20.7494 58.4355 21.8372 59.7525 23.0421 60.9579C24.2475 62.1628 25.5645 63.2507 26.9755 64.2067C27.5316 64.5842 28.2792 64.5106 28.7555 64.0353L31.0791 61.7117C31.5017 61.288 32.1452 61.1829 32.6856 61.4415C33.3838 61.7769 34.1029 62.0755 34.84 62.3341C35.4046 62.5329 35.7841 63.0628 35.7841 63.661V66.9488C35.7841 67.6217 36.2604 68.202 36.9207 68.3293C38.5651 68.6447 40.2631 68.8108 42 68.8108C43.7369 68.8108 45.435 68.6447 47.0794 68.3293C47.7396 68.202 48.2159 67.6217 48.2159 66.9488V63.661C48.2159 63.0628 48.5955 62.5329 49.1601 62.3341C49.8971 62.0755 50.6163 61.7769 51.3144 61.4415C51.8548 61.1829 52.4983 61.288 52.921 61.7117L55.2446 64.0353C55.7208 64.5106 56.4684 64.5842 57.0246 64.2067C58.4355 63.251 59.7525 62.1635 60.9579 60.9589L60.9589 60.9579C62.1633 59.7522 63.2507 58.4352 64.2067 57.0246C64.5842 56.4684 64.5106 55.7208 64.0354 55.2445L61.7118 52.9209C61.288 52.4983 61.1829 51.8548 61.4415 51.3144C61.7769 50.6163 62.0755 49.8971 62.3342 49.1601C62.5329 48.5955 63.0628 48.2159 63.661 48.2159H66.9488C67.6217 48.2159 68.2021 47.7396 68.3293 47.0793C68.6447 45.4349 68.8108 43.7369 68.8108 42C68.8108 40.2631 68.6447 38.5651 68.3293 36.9207ZM42 48.5177C38.4494 48.5177 35.5707 45.599 35.5707 42C35.5707 38.401 38.4494 35.4824 42 35.4824C45.5506 35.4824 48.4294 38.401 48.4294 42C48.4294 45.599 45.5506 48.5177 42 48.5177Z" fill="url(#paint0_linear_451_2333)"/>
<path d="M23.8623 22.2568C22.9566 23.0884 22.1092 23.9814 21.3263 24.9295C20.7832 25.5869 20.2717 26.2696 19.7934 26.9755C19.4159 27.5317 19.4895 28.2793 19.9648 28.7556L22.2884 31.0792C22.7121 31.5018 22.8172 32.1453 22.5586 32.6857C22.5586 32.6857 24.4322 29.5611 26.3178 27.3285C26.9953 26.5262 26.9445 25.3389 26.2019 24.5963L23.8623 22.2568Z" fill="url(#paint1_linear_451_2333)"/>
<path d="M64.2067 26.9755C63.2507 25.5649 62.1632 24.2479 60.9589 23.0422L60.9579 23.0412C60.6898 22.7731 60.4164 22.5113 60.1378 22.2568L57.7982 24.5964C57.0556 25.3389 57.0048 26.5263 57.6823 27.3286C59.5679 29.5611 61.4415 32.6857 61.4415 32.6857C61.1829 32.1453 61.288 31.5018 61.7117 31.0792L64.0353 28.7556C64.5106 28.2793 64.5842 27.5317 64.2067 26.9755Z" fill="url(#paint2_linear_451_2333)"/>
<path d="M21.6659 49.1516V49.16C21.4671 48.5954 20.9372 48.2159 20.339 48.2159H17.0512C16.3783 48.2159 15.798 47.7396 15.6708 47.0793C15.3553 45.4349 15.1892 43.7369 15.1892 42C15.1892 41.8012 15.1924 41.6025 15.1966 41.4038H19.4558C19.6705 41.4038 19.8781 41.4345 20.0742 41.4919C20.297 41.557 20.4462 41.7642 20.4462 41.9964V42C20.4462 44.5055 20.8763 46.9132 21.6659 49.1516Z" fill="url(#paint3_linear_451_2333)"/>
<path d="M68.8108 42C68.8108 43.7369 68.6447 45.435 68.3293 47.0793C68.2021 47.7396 67.6217 48.2159 66.9488 48.2159H63.661C63.0628 48.2159 62.5329 48.5955 62.3342 49.1601V49.1517C63.1238 46.9132 63.5538 44.5055 63.5538 42V41.9964C63.5538 41.7643 63.703 41.5572 63.9258 41.492C64.1267 41.4334 64.3349 41.4037 64.5442 41.4039H68.8035C68.8077 41.6026 68.8108 41.8013 68.8108 42Z" fill="url(#paint4_linear_451_2333)"/>
<path d="M22.6509 51.5685C22.7766 52.0466 22.6473 52.563 22.2884 52.921L19.9648 55.2446C19.4895 55.7209 19.4159 56.4684 19.7934 57.0246C20.7495 58.4355 21.8373 59.7525 23.0422 60.9579C24.2476 62.1629 25.5646 63.2507 26.9755 64.2067C27.5317 64.5842 28.2793 64.5106 28.7556 64.0354L31.0792 61.7118C31.5018 61.288 32.1453 61.1829 32.6857 61.4415C33.3838 61.7769 34.103 62.0755 34.84 62.3342C35.4046 62.5329 35.7842 63.0628 35.7842 63.6611V66.9488C35.7842 67.6217 36.2605 68.2021 36.9208 68.3293C38.5652 68.6447 40.2632 68.8108 42.0001 68.8108C43.737 68.8108 45.435 68.6447 47.0794 68.3293C47.7397 68.2021 48.216 67.6217 48.216 66.9488V63.6611C48.216 63.0628 48.5956 62.5329 49.1602 62.3342C49.8972 62.0755 50.6164 61.7769 51.3145 61.4415C51.8549 61.1829 52.4984 61.288 52.921 61.7118L55.2446 64.0354C55.7209 64.5106 56.4685 64.5842 57.0247 64.2067C58.4356 63.251 59.7526 62.1636 60.958 60.9589L60.959 60.9579C62.1633 59.7522 63.2508 58.4353 64.2068 57.0246C64.5843 56.4684 64.5107 55.7209 64.0354 55.2446L61.7118 52.921C61.3529 52.563 61.2236 52.0466 61.3493 51.5685H22.6509Z" fill="url(#paint5_linear_451_2333)"/>
<path d="M41.9999 23.7056C31.9123 23.7056 23.7054 31.9124 23.7054 42C23.7054 52.0876 31.9123 60.2944 41.9999 60.2944C52.0875 60.2944 60.2943 52.0876 60.2943 42C60.2943 31.9124 52.0875 23.7056 41.9999 23.7056ZM41.9999 48.5176C38.4493 48.5176 35.5705 45.5989 35.5705 42C35.5705 38.401 38.4493 35.4823 41.9999 35.4823C45.5505 35.4823 48.4292 38.401 48.4292 42C48.4292 45.5989 45.5505 48.5176 41.9999 48.5176Z" fill="url(#paint6_linear_451_2333)"/>
<path d="M62.3345 49.16C62.5332 48.5954 63.0631 48.2159 63.6614 48.2159H66.9491C67.622 48.2159 68.2024 47.7396 68.3296 47.0793C68.3743 46.8461 68.4152 46.6115 68.4539 46.3761L53.4699 31.3921C50.6187 28.3694 46.5789 26.4792 42.1055 26.4792C33.4893 26.4792 26.4796 33.489 26.4796 42.1051C26.4796 46.5786 28.3697 50.6184 31.3926 53.4696L46.3766 68.4536C46.6119 68.4149 46.8465 68.374 47.0798 68.3293C47.7401 68.2021 48.2163 67.6217 48.2163 66.9488V63.6611C48.2163 63.0628 48.5959 62.5329 49.1605 62.3342C49.8975 62.0756 50.6167 61.777 51.3148 61.4416C51.8553 61.1829 52.4987 61.2881 52.9214 61.7118L55.245 64.0354C55.7213 64.5106 56.4688 64.5842 57.025 64.2068C58.4359 63.2511 59.7529 62.1636 60.9583 60.959L60.9594 60.9579C62.1637 59.7523 63.2511 58.4353 64.2072 57.0246C64.5846 56.4684 64.511 55.7209 64.0358 55.2446L61.7122 52.921C61.2885 52.4983 61.1833 51.8549 61.442 51.3145C61.7788 50.6133 62.0768 49.894 62.3345 49.16ZM42.0003 48.5176C38.4497 48.5176 35.571 45.5989 35.571 42C35.571 38.401 38.4497 35.4823 42.0003 35.4823C45.5509 35.4823 48.4297 38.401 48.4297 42C48.4297 45.5989 45.5509 48.5176 42.0003 48.5176Z" fill="url(#paint7_linear_451_2333)"/>
<path d="M53.47 31.3924C53.3396 31.2536 53.2061 31.118 53.0705 30.9844C55.8231 33.8022 57.5211 37.6535 57.5211 41.8949C57.5211 50.5111 50.5114 57.5208 41.8951 57.5208C37.6537 57.5208 33.8024 55.8228 30.9847 53.0702C31.1182 53.2059 31.2538 53.3394 31.3926 53.4698L46.3762 68.4533C46.6117 68.4144 46.8462 68.3745 47.0796 68.3292C47.7399 68.202 48.2161 67.6216 48.2161 66.9487V63.661C48.2161 63.0628 48.5957 62.5329 49.1603 62.3341C49.8973 62.0755 50.6165 61.7769 51.3146 61.4415C51.8551 61.1829 52.4985 61.288 52.9212 61.7117L55.2448 64.0353C55.7211 64.5105 56.4686 64.5841 57.0248 64.2067C58.4357 63.251 59.7527 62.1635 60.9581 60.9589L60.9592 60.9579C62.1635 59.7522 63.2509 58.4352 64.207 57.0245C64.5844 56.4684 64.5108 55.7208 64.0356 55.2445L61.712 52.9209C61.2883 52.4983 61.1831 51.8548 61.4418 51.3144C61.7772 50.6162 62.0758 49.8971 62.3344 49.1601C62.5331 48.5954 63.063 48.2159 63.6613 48.2159H66.949C67.6219 48.2159 68.2023 47.7396 68.3295 47.0793C68.3747 46.8459 68.4147 46.6114 68.4536 46.3759L53.47 31.3924Z" fill="url(#paint8_linear_451_2333)"/>
<path d="M42.0003 57.6259C33.3841 57.6259 26.3744 50.6162 26.3744 42C26.3744 33.3839 33.3841 26.3741 42.0003 26.3741C50.6164 26.3741 57.6261 33.3839 57.6261 42C57.6261 50.6162 50.6164 57.6259 42.0003 57.6259ZM42.0003 31.1055C35.993 31.1055 31.1057 35.9927 31.1057 42C31.1057 48.0073 35.993 52.8945 42.0003 52.8945C48.0076 52.8945 52.8948 48.0073 52.8948 42C52.8948 35.9927 48.0076 31.1055 42.0003 31.1055Z" fill="url(#paint9_linear_451_2333)"/>
<path d="M52.7469 43.7875C51.8916 48.9473 47.3984 52.8946 41.9997 52.8946C36.6011 52.8946 32.1079 48.9473 31.2526 43.7875H26.4767C27.3665 51.5649 33.988 57.6259 41.9997 57.6259C50.0114 57.6259 56.633 51.5649 57.5228 43.7875H52.7469Z" fill="url(#paint10_linear_451_2333)"/>
<path d="M28.0295 58.3449C30.1176 60.0145 32.6856 61.4416 32.6856 61.4416C32.1451 61.1829 31.5017 61.2881 31.079 61.7118L28.7554 64.0354C28.2791 64.5106 27.5316 64.5842 26.9754 64.2067C25.536 63.2315 24.1945 62.1191 22.9695 60.8852V60.8843L25.3615 58.4925C26.0834 57.7705 27.2321 57.7073 28.0295 58.3449Z" fill="url(#paint11_linear_451_2333)"/>
<path d="M61.0315 60.8854L60.9589 60.9579L60.9579 60.959C59.7525 62.1636 58.4355 63.251 57.0246 64.2068C56.4684 64.5842 55.7208 64.5106 55.2445 64.0354L52.9209 61.7118C52.4983 61.2881 51.8548 61.1829 51.3144 61.4416C51.3144 61.4416 53.8823 60.0145 55.9703 58.3449C56.7677 57.7073 57.9166 57.7705 58.6385 58.4924L61.0315 60.8854Z" fill="url(#paint12_linear_451_2333)"/>
</g>
<path d="M1.63409 27.562C0.999945 30.7501 0.999964 34.5559 1 41.8345L1 42L1 42.1655C0.999964 49.4441 0.999945 53.2499 1.63409 56.438C4.23801 69.5288 14.4712 79.762 27.562 82.3659C30.7501 83.0001 34.5559 83 41.8345 83H42H42.1655C49.4441 83 53.2499 83.0001 56.438 82.3659C69.5288 79.762 79.762 69.5288 82.3659 56.438C83.0001 53.2499 83 49.4441 83 42.1655V42V41.8345C83 34.5559 83.0001 30.7501 82.3659 27.562C79.762 14.4712 69.5288 4.23801 56.438 1.63409C53.2499 0.999945 49.4441 0.999964 42.1655 1L42 1L41.8345 1C34.5559 0.999964 30.7501 0.999945 27.562 1.63409C14.4712 4.23801 4.23801 14.4712 1.63409 27.562Z" stroke="#F0EFFB" stroke-width="2"/>
<defs>
<linearGradient id="paint0_linear_451_2333" x1="24.2149" y1="24.2144" x2="56.7203" y2="56.7198" gradientUnits="userSpaceOnUse">
<stop stop-color="#EEF4FF"/>
<stop offset="1" stop-color="#CFE7FD"/>
</linearGradient>
<linearGradient id="paint1_linear_451_2333" x1="23.7025" y1="26.9619" x2="20.0042" y2="30.6602" gradientUnits="userSpaceOnUse">
<stop stop-color="#8AAADC" stop-opacity="0"/>
<stop offset="1" stop-color="#8AAADC"/>
</linearGradient>
<linearGradient id="paint2_linear_451_2333" x1="59.5861" y1="26.1143" x2="63.7391" y2="30.5828" gradientUnits="userSpaceOnUse">
<stop stop-color="#8AAADC" stop-opacity="0"/>
<stop offset="1" stop-color="#8AAADC"/>
</linearGradient>
<linearGradient id="paint3_linear_451_2333" x1="18.4275" y1="42.4555" x2="18.4275" y2="49.2546" gradientUnits="userSpaceOnUse">
<stop stop-color="#8AAADC" stop-opacity="0"/>
<stop offset="1" stop-color="#8AAADC"/>
</linearGradient>
<linearGradient id="paint4_linear_451_2333" x1="65.5725" y1="42.4556" x2="65.5725" y2="49.2547" gradientUnits="userSpaceOnUse">
<stop stop-color="#8AAADC" stop-opacity="0"/>
<stop offset="1" stop-color="#8AAADC"/>
</linearGradient>
<linearGradient id="paint5_linear_451_2333" x1="42.0001" y1="55.1426" x2="42.0001" y2="68.0817" gradientUnits="userSpaceOnUse">
<stop stop-color="#8AAADC" stop-opacity="0"/>
<stop offset="1" stop-color="#8AAADC"/>
</linearGradient>
<linearGradient id="paint6_linear_451_2333" x1="54.0624" y1="54.0625" x2="30.3296" y2="30.3297" gradientUnits="userSpaceOnUse">
<stop stop-color="#EEF4FF"/>
<stop offset="1" stop-color="#CFE7FD"/>
</linearGradient>
<linearGradient id="paint7_linear_451_2333" x1="46.6615" y1="46.6612" x2="33.6996" y2="33.6992" gradientUnits="userSpaceOnUse">
<stop stop-color="#8AAADC" stop-opacity="0"/>
<stop offset="1" stop-color="#8AAADC"/>
</linearGradient>
<linearGradient id="paint8_linear_451_2333" x1="59.6988" y1="59.6986" x2="49.9249" y2="49.9246" gradientUnits="userSpaceOnUse">
<stop stop-color="#8AAADC" stop-opacity="0"/>
<stop offset="1" stop-color="#8AAADC"/>
</linearGradient>
<linearGradient id="paint9_linear_451_2333" x1="31.3115" y1="31.3112" x2="52.6223" y2="52.622" gradientUnits="userSpaceOnUse">
<stop stop-color="#76CCF8"/>
<stop offset="0.833" stop-color="#518EF8"/>
<stop offset="1" stop-color="#4981F8"/>
</linearGradient>
<linearGradient id="paint10_linear_451_2333" x1="41.9997" y1="46.8365" x2="41.9997" y2="57.5691" gradientUnits="userSpaceOnUse">
<stop stop-color="#4071F7" stop-opacity="0"/>
<stop offset="1" stop-color="#30569F"/>
</linearGradient>
<linearGradient id="paint11_linear_451_2333" x1="27.5926" y1="60.9285" x2="29.9057" y2="63.2416" gradientUnits="userSpaceOnUse">
<stop stop-color="#8AAADC" stop-opacity="0"/>
<stop offset="1" stop-color="#8AAADC"/>
</linearGradient>
<linearGradient id="paint12_linear_451_2333" x1="57.1174" y1="60.2191" x2="54.0735" y2="63.2629" gradientUnits="userSpaceOnUse">
<stop stop-color="#8AAADC" stop-opacity="0"/>
<stop offset="1" stop-color="#8AAADC"/>
</linearGradient>
<clipPath id="clip0_451_2333">
<path d="M2 42C2 34.5655 2 30.8483 2.61487 27.7571C5.13988 15.063 15.063 5.13988 27.7571 2.61487C30.8483 2 34.5655 2 42 2C49.4345 2 53.1517 2 56.2429 2.61487C68.937 5.13988 78.8601 15.063 81.3851 27.7571C82 30.8483 82 34.5655 82 42C82 49.4345 82 53.1517 81.3851 56.2429C78.8601 68.937 68.937 78.8601 56.2429 81.3851C53.1517 82 49.4345 82 42 82C34.5655 82 30.8483 82 27.7571 81.3851C15.063 78.8601 5.13988 68.937 2.61487 56.2429C2 53.1517 2 49.4345 2 42Z" fill="white"/>
</clipPath>
</defs>
</svg>
