<svg width="16" height="16" viewBox="0 0 16 16" fill="none" xmlns="http://www.w3.org/2000/svg">
<path d="M6.36723 12.7764C5.88572 12.7764 5.52036 12.5655 5.41366 12.226L4.18823 8.22862L4.18631 8.22084C4.17642 8.18126 4.16431 8.13263 4.16431 8.07628C4.16431 7.61334 4.7286 7.3573 5.11864 7.3573C5.43548 7.3573 5.66816 7.50967 5.74107 7.7649L6.36618 10.0555L6.98688 7.7649C7.05979 7.50967 7.29247 7.3573 7.60931 7.3573C7.99936 7.3573 8.56362 7.61334 8.56362 8.07628C8.56362 8.13303 8.55087 8.18399 8.54157 8.22119L8.53972 8.22857L7.32159 12.2235C7.21411 12.5655 6.84873 12.7764 6.36723 12.7764Z" fill="url(#paint0_linear_2002_15276)"/>
<path d="M6.36723 12.7764C5.88572 12.7764 5.52036 12.5655 5.41366 12.226L4.18823 8.22862L4.18631 8.22084C4.17642 8.18126 4.16431 8.13263 4.16431 8.07628C4.16431 7.61334 4.7286 7.3573 5.11864 7.3573C5.43548 7.3573 5.66816 7.50967 5.74107 7.7649L6.36618 10.0555L6.98688 7.7649C7.05979 7.50967 7.29247 7.3573 7.60931 7.3573C7.99936 7.3573 8.56362 7.61334 8.56362 8.07628C8.56362 8.13303 8.55087 8.18399 8.54157 8.22119L8.53972 8.22857L7.32159 12.2235C7.21411 12.5655 6.84873 12.7764 6.36723 12.7764Z" fill="url(#paint1_linear_2002_15276)"/>
<path d="M6.32578 9.9074L5.74107 7.7649C5.66816 7.50967 5.43548 7.3573 5.11864 7.3573C4.7286 7.3573 4.16431 7.61334 4.16431 8.07628C4.16431 8.13263 4.17642 8.18126 4.18631 8.22084L4.18823 8.22862L5.03626 10.9949H6.32578V9.9074Z" fill="url(#paint2_linear_2002_15276)"/>
<path d="M2.52333 12.7372C2.09157 12.7372 1.7782 12.4788 1.7782 12.1228V7.96517C1.7782 7.60159 2.10392 7.3573 2.58873 7.3573C3.07353 7.3573 3.39925 7.60159 3.39925 7.96517V11.2469H4.5891C4.93375 11.2469 5.18388 11.5603 5.18388 11.9921C5.18388 12.4238 4.93375 12.7372 4.5891 12.7372H2.52333Z" fill="url(#paint3_linear_2002_15276)"/>
<path d="M2.52333 12.7372C2.09157 12.7372 1.7782 12.4788 1.7782 12.1228V7.96517C1.7782 7.60159 2.10392 7.3573 2.58873 7.3573C3.07353 7.3573 3.39925 7.60159 3.39925 7.96517V11.2469H4.5891C4.93375 11.2469 5.18388 11.5603 5.18388 11.9921C5.18388 12.4238 4.93375 12.7372 4.5891 12.7372H2.52333Z" fill="url(#paint4_linear_2002_15276)"/>
<path d="M3.39925 10.9849V7.96517C3.39925 7.60159 3.07353 7.3573 2.58873 7.3573C2.10392 7.3573 1.7782 7.60159 1.7782 7.96517V10.9849H3.39925Z" fill="url(#paint5_linear_2002_15276)"/>
<path d="M5.88628 12.2954C5.40476 12.2954 5.0394 12.0845 4.93271 11.745L3.70727 7.74767L3.70535 7.73989C3.69547 7.7003 3.68335 7.65167 3.68335 7.59532C3.68335 7.13239 4.24764 6.87634 4.63768 6.87634C4.95452 6.87634 5.1872 7.02872 5.26011 7.28395L5.88523 9.57451L6.50592 7.28395C6.57884 7.02872 6.81151 6.87634 7.12835 6.87634C7.5184 6.87634 8.08266 7.13239 8.08266 7.59532C8.08266 7.65207 8.06991 7.70304 8.06061 7.74023L8.05877 7.74762L6.84064 11.7426C6.73316 12.0845 6.36777 12.2954 5.88628 12.2954Z" fill="url(#paint6_linear_2002_15276)"/>
<path d="M3.99707 7.66718C3.99055 7.64102 3.98401 7.61487 3.98401 7.59526C3.98401 7.35338 4.35663 7.17688 4.63775 7.17688C4.80116 7.17688 4.93193 7.22919 4.97115 7.36645L5.88634 10.72L6.79502 7.36645C6.83423 7.22916 6.96495 7.17688 7.12842 7.17688C7.40951 7.17688 7.7821 7.35338 7.7821 7.59526C7.7821 7.61487 7.77558 7.64102 7.76904 7.66718L6.55312 11.6549C6.48123 11.8837 6.18704 11.9948 5.88631 11.9948C5.58559 11.9948 5.29143 11.8836 5.21951 11.6549L3.99707 7.66718Z" fill="url(#paint7_linear_2002_15276)"/>
<path d="M4.3833 9.95276L4.93274 11.745C5.03943 12.0845 5.40479 12.2954 5.88631 12.2954C6.36783 12.2954 6.73319 12.0845 6.84064 11.7425L7.38637 9.95276H4.3833Z" fill="url(#paint8_linear_2002_15276)"/>
<path d="M5.88634 12.2954C6.36785 12.2954 6.73322 12.0845 6.84067 11.7426L8.0588 7.74762L8.06064 7.74023C8.06995 7.70304 8.08269 7.65209 8.08269 7.59532C8.08269 7.13239 7.51843 6.87634 7.12839 6.87634C6.81155 6.87634 6.57887 7.02872 6.50596 7.28395L5.88526 9.57451L5.07129 11.9875C5.2433 12.1818 5.53335 12.2954 5.88634 12.2954Z" fill="url(#paint9_linear_2002_15276)"/>
<path d="M2.04237 12.2562C1.61061 12.2562 1.29724 11.9979 1.29724 11.6419V7.48421C1.29724 7.12064 1.62297 6.87634 2.10777 6.87634C2.59257 6.87634 2.91827 7.12064 2.91827 7.48421V10.766H4.10812C4.45277 10.766 4.7029 11.0794 4.7029 11.5111C4.7029 11.9429 4.45277 12.2562 4.10812 12.2562H2.04237Z" fill="url(#paint10_linear_2002_15276)"/>
<path d="M2.04231 11.9556C1.82007 11.9556 1.59778 11.851 1.59778 11.6418V7.48413C1.59778 7.26838 1.85274 7.17688 2.10768 7.17688C2.36262 7.17688 2.61761 7.26838 2.61761 7.48413V11.0665H4.10806C4.3042 11.0665 4.40224 11.2888 4.40224 11.511C4.40224 11.7333 4.3042 11.9556 4.10806 11.9556H2.04231Z" fill="url(#paint11_linear_2002_15276)"/>
<path d="M1.29724 9.96277V11.6418C1.29724 11.9978 1.61061 12.2561 2.04237 12.2561H4.10812C4.45277 12.2561 4.7029 11.9428 4.7029 11.511C4.7029 11.0793 4.45277 10.7659 4.10812 10.7659H2.91827V9.96277H1.29724Z" fill="url(#paint12_linear_2002_15276)"/>
<path d="M4.10806 10.766H2.91821V12.2563H4.10806C4.45271 12.2563 4.70284 11.9429 4.70284 11.5111C4.70284 11.0794 4.45271 10.766 4.10806 10.766Z" fill="url(#paint13_linear_2002_15276)"/>
<path d="M8.36591 12.7764C8.79756 12.7764 9.14747 12.4265 9.14747 11.9948C9.14747 11.5632 8.79756 11.2133 8.36591 11.2133C7.93427 11.2133 7.58435 11.5632 7.58435 11.9948C7.58435 12.4265 7.93427 12.7764 8.36591 12.7764Z" fill="url(#paint14_linear_2002_15276)"/>
<path d="M8.36591 12.7764C8.79756 12.7764 9.14747 12.4265 9.14747 11.9948C9.14747 11.5632 8.79756 11.2133 8.36591 11.2133C7.93427 11.2133 7.58435 11.5632 7.58435 11.9948C7.58435 12.4265 7.93427 12.7764 8.36591 12.7764Z" fill="url(#paint15_linear_2002_15276)"/>
<path d="M7.95014 12.2954C8.38178 12.2954 8.7317 11.9455 8.7317 11.5139C8.7317 11.0822 8.38178 10.7323 7.95014 10.7323C7.5185 10.7323 7.16858 11.0822 7.16858 11.5139C7.16858 11.9455 7.5185 12.2954 7.95014 12.2954Z" fill="url(#paint16_linear_2002_15276)"/>
<path d="M7.95013 12.0349C8.23789 12.0349 8.47118 11.8016 8.47118 11.5138C8.47118 11.2261 8.23789 10.9928 7.95013 10.9928C7.66236 10.9928 7.42908 11.2261 7.42908 11.5138C7.42908 11.8016 7.66236 12.0349 7.95013 12.0349Z" fill="url(#paint17_linear_2002_15276)"/>
<path d="M7.16858 11.5139C7.16858 11.9455 7.51849 12.2954 7.95014 12.2954C8.38179 12.2954 8.7317 11.9455 8.7317 11.5139C8.7317 11.4204 8.71522 11.3308 8.68513 11.2477H7.21513C7.18425 11.333 7.1685 11.4231 7.16858 11.5139Z" fill="url(#paint18_linear_2002_15276)"/>
<path d="M7.39748 12.0665C7.7027 12.3717 8.19757 12.3717 8.50279 12.0665C8.80802 11.7613 8.80802 11.2664 8.50279 10.9612C8.43867 10.897 8.36383 10.8444 8.28163 10.8059L7.24219 11.8454C7.28068 11.9276 7.33324 12.0024 7.39748 12.0665Z" fill="url(#paint19_linear_2002_15276)"/>
<path d="M6.55053 4.2677L6.12676 3.39585C6.02787 3.19243 5.73803 3.19243 5.63917 3.39585L5.2154 4.2677C5.09433 4.51678 4.76275 4.57016 4.56963 4.37166L3.88837 3.67142C3.69704 3.47479 3.36816 3.65423 3.42999 3.92153L3.90154 5.96041H7.86436L8.33592 3.92153C8.39774 3.65421 8.06883 3.47476 7.87753 3.67142L7.1963 4.37166C7.00318 4.57016 6.6716 4.51678 6.55053 4.2677Z" fill="url(#paint20_linear_2002_15276)"/>
<path d="M3.91384 4.53794L4.03738 5.0873C4.04691 5.12969 4.07059 5.16756 4.10451 5.1947C4.13844 5.22184 4.18059 5.23663 4.22403 5.23663H4.84244C4.95773 5.23663 5.0021 5.08643 4.90532 5.02377L4.02984 4.45709C3.9724 4.4199 3.89883 4.4712 3.91384 4.53794Z" fill="url(#paint21_linear_2002_15276)"/>
<path d="M7.85214 4.53794L7.7286 5.0873C7.71907 5.12969 7.69539 5.16756 7.66147 5.1947C7.62755 5.22184 7.5854 5.23663 7.54195 5.23663H6.92354C6.80826 5.23663 6.76386 5.08643 6.86067 5.02377L7.73615 4.45709C7.79358 4.4199 7.86715 4.4712 7.85214 4.53794Z" fill="url(#paint22_linear_2002_15276)"/>
<path d="M5.78874 4.49841L5.4172 5.06136C5.3676 5.13651 5.42149 5.23666 5.51154 5.23666H6.25462C6.34467 5.23666 6.39856 5.13651 6.34896 5.06136L5.97742 4.49841C5.93276 4.4307 5.83343 4.4307 5.78874 4.49841Z" fill="url(#paint23_linear_2002_15276)"/>
<path d="M7.2647 4.30139L7.19639 4.3716C7.01244 4.56067 6.70328 4.52079 6.56967 4.30139H5.19643C5.06283 4.52082 4.75366 4.56069 4.56972 4.3716L4.5014 4.30139H3.51794L3.90163 5.96035H7.86445L8.24813 4.30139H7.2647Z" fill="url(#paint24_linear_2002_15276)"/>
<path d="M7.87758 3.67139L7.19632 4.37162C7.0032 4.57013 6.67162 4.51674 6.55055 4.26766L6.12678 3.39581C6.06879 3.27651 5.9452 3.22772 5.83289 3.24838V5.96037H7.86441L8.33596 3.92149C8.39779 3.65417 8.06888 3.47472 7.87758 3.67139Z" fill="url(#paint25_linear_2002_15276)"/>
<path d="M7.99026 6.50587H3.77579C3.62023 6.50587 3.49414 6.37978 3.49414 6.22422V5.9783C3.49414 5.82275 3.62023 5.69666 3.77579 5.69666H7.99026C8.14582 5.69666 8.27191 5.82275 8.27191 5.9783V6.22422C8.27191 6.37978 8.14579 6.50587 7.99026 6.50587Z" fill="url(#paint26_linear_2002_15276)"/>
<path d="M7.99022 5.69666H5.95312V6.50587H7.99022C8.14578 6.50587 8.27186 6.37978 8.27186 6.22422V5.9783C8.27186 5.82274 8.14575 5.69666 7.99022 5.69666Z" fill="url(#paint27_linear_2002_15276)"/>
<path d="M14.5793 5.87493L11.751 3.44826C11.6873 3.39358 11.6061 3.36353 11.5221 3.36353C11.4382 3.36353 11.357 3.39358 11.2933 3.44826L8.46498 5.87493C8.2174 6.08736 8.36762 6.49318 8.69385 6.49318H9.28056C9.55631 6.49318 9.77987 6.71673 9.77987 6.99249V9.54238C9.77987 9.758 9.95467 9.93279 10.1703 9.93279H12.8739C13.0896 9.93279 13.2644 9.758 13.2644 9.54238V6.99249C13.2644 6.71673 13.4879 6.49318 13.7637 6.49318H14.3504C14.6767 6.49318 14.8269 6.08736 14.5793 5.87493Z" fill="url(#paint28_linear_2002_15276)"/>
<path d="M9.77991 7.39258V9.54228C9.77991 9.7579 9.9547 9.93269 10.1703 9.93269H12.874C13.0896 9.93269 13.2644 9.7579 13.2644 9.54228V7.39258H9.77991Z" fill="url(#paint29_linear_2002_15276)"/>
<path d="M9.77991 12.5049C9.77991 12.6548 9.90142 12.7764 10.0513 12.7764H12.9929C13.1429 12.7764 13.2644 12.6548 13.2644 12.5049C13.2644 12.355 13.1429 12.2335 12.9929 12.2335H10.0513C9.90142 12.2335 9.77991 12.355 9.77991 12.5049Z" fill="url(#paint30_linear_2002_15276)"/>
<path d="M9.77991 12.5049C9.77991 12.6548 9.90142 12.7764 10.0513 12.7764H12.9929C13.1429 12.7764 13.2644 12.6548 13.2644 12.5049C13.2644 12.355 13.1429 12.2335 12.9929 12.2335H10.0513C9.90142 12.2335 9.77991 12.355 9.77991 12.5049Z" fill="url(#paint31_linear_2002_15276)"/>
<path d="M9.77991 11.5599V11.7341C9.77991 11.884 9.90142 12.0056 10.0513 12.0056H12.9929C13.1429 12.0056 13.2644 11.884 13.2644 11.7341V11.5599C13.2644 11.41 13.1429 11.2885 12.9929 11.2885H10.0513C9.90142 11.2885 9.77991 11.41 9.77991 11.5599Z" fill="url(#paint32_linear_2002_15276)"/>
<path d="M9.77991 11.5599V11.7341C9.77991 11.884 9.90142 12.0056 10.0513 12.0056H12.9929C13.1429 12.0056 13.2644 11.884 13.2644 11.7341V11.5599C13.2644 11.41 13.1429 11.2885 12.9929 11.2885H10.0513C9.90142 11.2885 9.77991 11.41 9.77991 11.5599Z" fill="url(#paint33_linear_2002_15276)"/>
<path d="M9.77991 10.4326V10.8072C9.77991 10.9571 9.90142 11.0786 10.0513 11.0786H12.9929C13.1429 11.0786 13.2644 10.9571 13.2644 10.8072V10.4326C13.2644 10.2826 13.1429 10.1611 12.9929 10.1611H10.0513C9.90142 10.1611 9.77991 10.2826 9.77991 10.4326Z" fill="url(#paint34_linear_2002_15276)"/>
<path d="M9.77991 10.4326V10.8072C9.77991 10.9571 9.90142 11.0786 10.0513 11.0786H12.9929C13.1429 11.0786 13.2644 10.9571 13.2644 10.8072V10.4326C13.2644 10.2826 13.1429 10.1611 12.9929 10.1611H10.0513C9.90142 10.1611 9.77991 10.2826 9.77991 10.4326Z" fill="url(#paint35_linear_2002_15276)"/>
<path d="M13.2645 12.505C13.2645 12.6547 13.1428 12.7764 12.9931 12.7764H11.2908V12.2335H12.9931C13.068 12.2335 13.1359 12.2639 13.1849 12.3129C13.2102 12.3381 13.2302 12.368 13.2439 12.401C13.2576 12.4339 13.2646 12.4693 13.2645 12.505Z" fill="url(#paint36_linear_2002_15276)"/>
<path d="M13.2645 11.5599V11.734C13.2645 11.884 13.1428 12.0054 12.9931 12.0054H11.2908V11.2885H12.9931C13.1428 11.2885 13.2645 11.4099 13.2645 11.5599Z" fill="url(#paint37_linear_2002_15276)"/>
<path d="M13.2645 10.4327V10.8073C13.2645 10.9573 13.1428 11.0787 12.9931 11.0787H11.2908V10.1613H12.9931C13.1428 10.1613 13.2645 10.2827 13.2645 10.4327Z" fill="url(#paint38_linear_2002_15276)"/>
<defs>
<linearGradient id="paint0_linear_2002_15276" x1="4.59013" y1="8.27928" x2="7.59617" y2="10.5438" gradientUnits="userSpaceOnUse">
<stop stop-color="#FEF0AE"/>
<stop offset="1" stop-color="#FAC600"/>
</linearGradient>
<linearGradient id="paint1_linear_2002_15276" x1="-0.59377" y1="1.40895" x2="9.37126" y2="12.8169" gradientUnits="userSpaceOnUse">
<stop stop-color="#FEA613" stop-opacity="0"/>
<stop offset="0.203" stop-color="#FDA215" stop-opacity="0.203"/>
<stop offset="0.405" stop-color="#FB961B" stop-opacity="0.405"/>
<stop offset="0.607" stop-color="#F68225" stop-opacity="0.607"/>
<stop offset="0.807" stop-color="#F06633" stop-opacity="0.807"/>
<stop offset="1" stop-color="#E94444"/>
</linearGradient>
<linearGradient id="paint2_linear_2002_15276" x1="6.53049" y1="8.75275" x2="5.62868" y2="9.16356" gradientUnits="userSpaceOnUse">
<stop stop-color="#FEA613" stop-opacity="0"/>
<stop offset="0.203" stop-color="#FDA215" stop-opacity="0.203"/>
<stop offset="0.405" stop-color="#FB961B" stop-opacity="0.405"/>
<stop offset="0.607" stop-color="#F68225" stop-opacity="0.607"/>
<stop offset="0.807" stop-color="#F06633" stop-opacity="0.807"/>
<stop offset="1" stop-color="#E94444"/>
</linearGradient>
<linearGradient id="paint3_linear_2002_15276" x1="-0.288863" y1="5.8498" x2="4.23522" y2="12.4481" gradientUnits="userSpaceOnUse">
<stop stop-color="#FEF0AE"/>
<stop offset="1" stop-color="#FAC600"/>
</linearGradient>
<linearGradient id="paint4_linear_2002_15276" x1="-1.63569" y1="5.67119" x2="5.44355" y2="13.0059" gradientUnits="userSpaceOnUse">
<stop stop-color="#FEA613" stop-opacity="0"/>
<stop offset="0.203" stop-color="#FDA215" stop-opacity="0.203"/>
<stop offset="0.405" stop-color="#FB961B" stop-opacity="0.405"/>
<stop offset="0.607" stop-color="#F68225" stop-opacity="0.607"/>
<stop offset="0.807" stop-color="#F06633" stop-opacity="0.807"/>
<stop offset="1" stop-color="#E94444"/>
</linearGradient>
<linearGradient id="paint5_linear_2002_15276" x1="3.75226" y1="9.10379" x2="2.57989" y2="9.20399" gradientUnits="userSpaceOnUse">
<stop stop-color="#FEA613" stop-opacity="0"/>
<stop offset="0.203" stop-color="#FDA215" stop-opacity="0.203"/>
<stop offset="0.405" stop-color="#FB961B" stop-opacity="0.405"/>
<stop offset="0.607" stop-color="#F68225" stop-opacity="0.607"/>
<stop offset="0.807" stop-color="#F06633" stop-opacity="0.807"/>
<stop offset="1" stop-color="#E94444"/>
</linearGradient>
<linearGradient id="paint6_linear_2002_15276" x1="4.10917" y1="7.79835" x2="7.11521" y2="10.0629" gradientUnits="userSpaceOnUse">
<stop stop-color="#FEF0AE"/>
<stop offset="1" stop-color="#FAC600"/>
</linearGradient>
<linearGradient id="paint7_linear_2002_15276" x1="8.65051" y1="9.58586" x2="2.29393" y2="9.58586" gradientUnits="userSpaceOnUse">
<stop stop-color="#FEF0AE"/>
<stop offset="1" stop-color="#FAC600"/>
</linearGradient>
<linearGradient id="paint8_linear_2002_15276" x1="5.88484" y1="11.0049" x2="5.88484" y2="12.4" gradientUnits="userSpaceOnUse">
<stop stop-color="#FEA613" stop-opacity="0"/>
<stop offset="0.203" stop-color="#FDA215" stop-opacity="0.203"/>
<stop offset="0.405" stop-color="#FB961B" stop-opacity="0.405"/>
<stop offset="0.607" stop-color="#F68225" stop-opacity="0.607"/>
<stop offset="0.807" stop-color="#F06633" stop-opacity="0.807"/>
<stop offset="1" stop-color="#E94444"/>
</linearGradient>
<linearGradient id="paint9_linear_2002_15276" x1="6.6102" y1="9.62687" x2="7.45188" y2="9.88741" gradientUnits="userSpaceOnUse">
<stop stop-color="#FEA613" stop-opacity="0"/>
<stop offset="0.203" stop-color="#FDA215" stop-opacity="0.203"/>
<stop offset="0.405" stop-color="#FB961B" stop-opacity="0.405"/>
<stop offset="0.607" stop-color="#F68225" stop-opacity="0.607"/>
<stop offset="0.807" stop-color="#F06633" stop-opacity="0.807"/>
<stop offset="1" stop-color="#E94444"/>
</linearGradient>
<linearGradient id="paint10_linear_2002_15276" x1="0.977693" y1="9.05454" x2="3.26226" y2="10.0966" gradientUnits="userSpaceOnUse">
<stop stop-color="#FEF0AE"/>
<stop offset="1" stop-color="#FAC600"/>
</linearGradient>
<linearGradient id="paint11_linear_2002_15276" x1="5.26363" y1="9.56622" x2="-1.13727" y2="9.56622" gradientUnits="userSpaceOnUse">
<stop stop-color="#FEF0AE"/>
<stop offset="1" stop-color="#FAC600"/>
</linearGradient>
<linearGradient id="paint12_linear_2002_15276" x1="3.00007" y1="11.4658" x2="3.00007" y2="12.3075" gradientUnits="userSpaceOnUse">
<stop stop-color="#FEA613" stop-opacity="0"/>
<stop offset="0.203" stop-color="#FDA215" stop-opacity="0.203"/>
<stop offset="0.405" stop-color="#FB961B" stop-opacity="0.405"/>
<stop offset="0.607" stop-color="#F68225" stop-opacity="0.607"/>
<stop offset="0.807" stop-color="#F06633" stop-opacity="0.807"/>
<stop offset="1" stop-color="#E94444"/>
</linearGradient>
<linearGradient id="paint13_linear_2002_15276" x1="3.73055" y1="11.5111" x2="4.73575" y2="11.5111" gradientUnits="userSpaceOnUse">
<stop stop-color="#FEA613" stop-opacity="0"/>
<stop offset="0.203" stop-color="#FDA215" stop-opacity="0.203"/>
<stop offset="0.405" stop-color="#FB961B" stop-opacity="0.405"/>
<stop offset="0.607" stop-color="#F68225" stop-opacity="0.607"/>
<stop offset="0.807" stop-color="#F06633" stop-opacity="0.807"/>
<stop offset="1" stop-color="#E94444"/>
</linearGradient>
<linearGradient id="paint14_linear_2002_15276" x1="7.17152" y1="10.8004" x2="8.83994" y2="12.4688" gradientUnits="userSpaceOnUse">
<stop stop-color="#FEF0AE"/>
<stop offset="1" stop-color="#FAC600"/>
</linearGradient>
<linearGradient id="paint15_linear_2002_15276" x1="6.12718" y1="9.96293" x2="8.89274" y2="12.473" gradientUnits="userSpaceOnUse">
<stop stop-color="#FEA613" stop-opacity="0"/>
<stop offset="0.203" stop-color="#FDA215" stop-opacity="0.203"/>
<stop offset="0.405" stop-color="#FB961B" stop-opacity="0.405"/>
<stop offset="0.607" stop-color="#F68225" stop-opacity="0.607"/>
<stop offset="0.807" stop-color="#F06633" stop-opacity="0.807"/>
<stop offset="1" stop-color="#E94444"/>
</linearGradient>
<linearGradient id="paint16_linear_2002_15276" x1="7.64205" y1="11.2058" x2="8.37551" y2="11.9392" gradientUnits="userSpaceOnUse">
<stop stop-color="#FEF0AE"/>
<stop offset="1" stop-color="#FAC600"/>
</linearGradient>
<linearGradient id="paint17_linear_2002_15276" x1="8.39153" y1="11.9553" x2="7.41215" y2="10.9759" gradientUnits="userSpaceOnUse">
<stop stop-color="#FEF0AE"/>
<stop offset="1" stop-color="#FAC600"/>
</linearGradient>
<linearGradient id="paint18_linear_2002_15276" x1="7.95017" y1="11.5252" x2="7.95017" y2="12.2455" gradientUnits="userSpaceOnUse">
<stop stop-color="#FEA613" stop-opacity="0"/>
<stop offset="0.203" stop-color="#FDA215" stop-opacity="0.203"/>
<stop offset="0.405" stop-color="#FB961B" stop-opacity="0.405"/>
<stop offset="0.607" stop-color="#F68225" stop-opacity="0.607"/>
<stop offset="0.807" stop-color="#F06633" stop-opacity="0.807"/>
<stop offset="1" stop-color="#E94444"/>
</linearGradient>
<linearGradient id="paint19_linear_2002_15276" x1="8.07913" y1="11.6429" x2="8.5055" y2="12.0692" gradientUnits="userSpaceOnUse">
<stop stop-color="#FEA613" stop-opacity="0"/>
<stop offset="0.203" stop-color="#FDA215" stop-opacity="0.203"/>
<stop offset="0.405" stop-color="#FB961B" stop-opacity="0.405"/>
<stop offset="0.607" stop-color="#F68225" stop-opacity="0.607"/>
<stop offset="0.807" stop-color="#F06633" stop-opacity="0.807"/>
<stop offset="1" stop-color="#E94444"/>
</linearGradient>
<linearGradient id="paint20_linear_2002_15276" x1="5.1632" y1="3.34699" x2="6.86663" y2="6.05241" gradientUnits="userSpaceOnUse">
<stop stop-color="#FEF0AE"/>
<stop offset="1" stop-color="#FAC600"/>
</linearGradient>
<linearGradient id="paint21_linear_2002_15276" x1="4.95095" y1="5.55412" x2="3.68816" y2="4.29133" gradientUnits="userSpaceOnUse">
<stop stop-color="#FEF0AE"/>
<stop offset="1" stop-color="#FAC600"/>
</linearGradient>
<linearGradient id="paint22_linear_2002_15276" x1="7.6856" y1="5.18419" x2="7.26877" y2="4.76736" gradientUnits="userSpaceOnUse">
<stop stop-color="#FEF0AE"/>
<stop offset="1" stop-color="#FAC600"/>
</linearGradient>
<linearGradient id="paint23_linear_2002_15276" x1="6.29636" y1="5.44121" x2="5.5067" y2="4.65155" gradientUnits="userSpaceOnUse">
<stop stop-color="#FEF0AE"/>
<stop offset="1" stop-color="#FAC600"/>
</linearGradient>
<linearGradient id="paint24_linear_2002_15276" x1="5.88305" y1="5.03288" x2="5.88305" y2="5.94492" gradientUnits="userSpaceOnUse">
<stop stop-color="#FEA613" stop-opacity="0"/>
<stop offset="0.203" stop-color="#FDA215" stop-opacity="0.203"/>
<stop offset="0.405" stop-color="#FB961B" stop-opacity="0.405"/>
<stop offset="0.607" stop-color="#F68225" stop-opacity="0.607"/>
<stop offset="0.807" stop-color="#F06633" stop-opacity="0.807"/>
<stop offset="1" stop-color="#E94444"/>
</linearGradient>
<linearGradient id="paint25_linear_2002_15276" x1="7.21351" y1="4.85369" x2="8.18548" y2="5.17434" gradientUnits="userSpaceOnUse">
<stop stop-color="#FEA613" stop-opacity="0"/>
<stop offset="0.203" stop-color="#FDA215" stop-opacity="0.203"/>
<stop offset="0.405" stop-color="#FB961B" stop-opacity="0.405"/>
<stop offset="0.607" stop-color="#F68225" stop-opacity="0.607"/>
<stop offset="0.807" stop-color="#F06633" stop-opacity="0.807"/>
<stop offset="1" stop-color="#E94444"/>
</linearGradient>
<linearGradient id="paint26_linear_2002_15276" x1="5.88301" y1="5.82514" x2="5.88301" y2="6.60672" gradientUnits="userSpaceOnUse">
<stop stop-color="#FEF0AE"/>
<stop offset="1" stop-color="#FAC600"/>
</linearGradient>
<linearGradient id="paint27_linear_2002_15276" x1="7.27576" y1="6.10124" x2="8.6285" y2="6.10124" gradientUnits="userSpaceOnUse">
<stop stop-color="#FEA613" stop-opacity="0"/>
<stop offset="0.203" stop-color="#FDA215" stop-opacity="0.203"/>
<stop offset="0.405" stop-color="#FB961B" stop-opacity="0.405"/>
<stop offset="0.607" stop-color="#F68225" stop-opacity="0.607"/>
<stop offset="0.807" stop-color="#F06633" stop-opacity="0.807"/>
<stop offset="1" stop-color="#E94444"/>
</linearGradient>
<linearGradient id="paint28_linear_2002_15276" x1="9.98905" y1="5.59817" x2="12.7552" y2="8.36439" gradientUnits="userSpaceOnUse">
<stop stop-color="#BBEC6C"/>
<stop offset="1" stop-color="#78A91F"/>
</linearGradient>
<linearGradient id="paint29_linear_2002_15276" x1="11.5221" y1="8.82046" x2="11.5221" y2="9.99896" gradientUnits="userSpaceOnUse">
<stop stop-color="#026841" stop-opacity="0"/>
<stop offset="0.324" stop-color="#046842" stop-opacity="0.324"/>
<stop offset="0.551" stop-color="#0E6546" stop-opacity="0.551"/>
<stop offset="0.748" stop-color="#1D614C" stop-opacity="0.748"/>
<stop offset="0.926" stop-color="#335C54" stop-opacity="0.926"/>
<stop offset="1" stop-color="#3E5959"/>
</linearGradient>
<linearGradient id="paint30_linear_2002_15276" x1="11.5221" y1="11.9768" x2="11.5221" y2="12.9389" gradientUnits="userSpaceOnUse">
<stop stop-color="#BBEC6C"/>
<stop offset="1" stop-color="#78A91F"/>
</linearGradient>
<linearGradient id="paint31_linear_2002_15276" x1="11.5221" y1="10.9698" x2="11.5221" y2="13.2394" gradientUnits="userSpaceOnUse">
<stop stop-color="#026841" stop-opacity="0"/>
<stop offset="0.324" stop-color="#046842" stop-opacity="0.324"/>
<stop offset="0.551" stop-color="#0E6546" stop-opacity="0.551"/>
<stop offset="0.748" stop-color="#1D614C" stop-opacity="0.748"/>
<stop offset="0.926" stop-color="#335C54" stop-opacity="0.926"/>
<stop offset="1" stop-color="#3E5959"/>
</linearGradient>
<linearGradient id="paint32_linear_2002_15276" x1="11.5221" y1="10.8947" x2="11.5221" y2="12.2626" gradientUnits="userSpaceOnUse">
<stop stop-color="#BBEC6C"/>
<stop offset="1" stop-color="#78A91F"/>
</linearGradient>
<linearGradient id="paint33_linear_2002_15276" x1="11.5221" y1="10.8947" x2="11.5221" y2="12.2626" gradientUnits="userSpaceOnUse">
<stop stop-color="#026841" stop-opacity="0"/>
<stop offset="0.324" stop-color="#046842" stop-opacity="0.324"/>
<stop offset="0.551" stop-color="#0E6546" stop-opacity="0.551"/>
<stop offset="0.748" stop-color="#1D614C" stop-opacity="0.748"/>
<stop offset="0.926" stop-color="#335C54" stop-opacity="0.926"/>
<stop offset="1" stop-color="#3E5959"/>
</linearGradient>
<linearGradient id="paint34_linear_2002_15276" x1="11.5221" y1="10.083" x2="11.5221" y2="11.5561" gradientUnits="userSpaceOnUse">
<stop stop-color="#BBEC6C"/>
<stop offset="1" stop-color="#78A91F"/>
</linearGradient>
<linearGradient id="paint35_linear_2002_15276" x1="11.5221" y1="9.07603" x2="11.5221" y2="11.9468" gradientUnits="userSpaceOnUse">
<stop stop-color="#026841" stop-opacity="0"/>
<stop offset="0.324" stop-color="#046842" stop-opacity="0.324"/>
<stop offset="0.551" stop-color="#0E6546" stop-opacity="0.551"/>
<stop offset="0.748" stop-color="#1D614C" stop-opacity="0.748"/>
<stop offset="0.926" stop-color="#335C54" stop-opacity="0.926"/>
<stop offset="1" stop-color="#3E5959"/>
</linearGradient>
<linearGradient id="paint36_linear_2002_15276" x1="12.373" y1="12.505" x2="13.2576" y2="12.505" gradientUnits="userSpaceOnUse">
<stop stop-color="#026841" stop-opacity="0"/>
<stop offset="0.324" stop-color="#046842" stop-opacity="0.324"/>
<stop offset="0.551" stop-color="#0E6546" stop-opacity="0.551"/>
<stop offset="0.748" stop-color="#1D614C" stop-opacity="0.748"/>
<stop offset="0.926" stop-color="#335C54" stop-opacity="0.926"/>
<stop offset="1" stop-color="#3E5959"/>
</linearGradient>
<linearGradient id="paint37_linear_2002_15276" x1="12.373" y1="11.6469" x2="13.2576" y2="11.6469" gradientUnits="userSpaceOnUse">
<stop stop-color="#026841" stop-opacity="0"/>
<stop offset="0.324" stop-color="#046842" stop-opacity="0.324"/>
<stop offset="0.551" stop-color="#0E6546" stop-opacity="0.551"/>
<stop offset="0.748" stop-color="#1D614C" stop-opacity="0.748"/>
<stop offset="0.926" stop-color="#335C54" stop-opacity="0.926"/>
<stop offset="1" stop-color="#3E5959"/>
</linearGradient>
<linearGradient id="paint38_linear_2002_15276" x1="12.373" y1="10.62" x2="13.2576" y2="10.62" gradientUnits="userSpaceOnUse">
<stop stop-color="#026841" stop-opacity="0"/>
<stop offset="0.324" stop-color="#046842" stop-opacity="0.324"/>
<stop offset="0.551" stop-color="#0E6546" stop-opacity="0.551"/>
<stop offset="0.748" stop-color="#1D614C" stop-opacity="0.748"/>
<stop offset="0.926" stop-color="#335C54" stop-opacity="0.926"/>
<stop offset="1" stop-color="#3E5959"/>
</linearGradient>
</defs>
</svg>
